<svg width="63" height="54" viewBox="0 0 63 54" fill="none" xmlns="http://www.w3.org/2000/svg">
<path d="M58.6573 38.145C57.7627 38.143 56.8917 38.4312 56.1749 38.9665L51.5109 35.3169C51.3135 35.1626 51.0701 35.0788 50.8196 35.079H43.7102V28.1234H48.0532C48.3246 29.0984 48.94 29.9421 49.7855 30.4983C50.6311 31.0545 51.6495 31.2855 52.6523 31.1486C53.6551 31.0117 54.5743 30.5161 55.2398 29.7535C55.9052 28.991 56.2719 28.0132 56.2719 27.0011C56.2719 25.989 55.9052 25.0112 55.2398 24.2487C54.5743 23.4862 53.6551 22.9906 52.6523 22.8536C51.6495 22.7167 50.6311 22.9477 49.7855 23.5039C48.94 24.0601 48.3246 24.9038 48.0532 25.8789H43.7102V18.9232H50.8196C51.0701 18.9234 51.3135 18.8396 51.5109 18.6853L56.1749 15.0358C56.9795 15.6116 57.9651 15.877 58.9501 15.7832C59.935 15.6894 60.8528 15.2427 61.5343 14.5254C62.2157 13.808 62.6148 12.8685 62.6581 11.8801C62.7013 10.8916 62.3856 9.9209 61.7694 9.14686C61.1531 8.37283 60.2778 7.84771 59.3048 7.66832C58.3318 7.48893 57.3267 7.66738 56.475 8.17077C55.6232 8.67415 54.9822 9.46851 54.67 10.4074C54.3579 11.3463 54.3957 12.3663 54.7766 13.2795L50.4324 16.6799H43.7102V4.48896C43.7087 3.29887 43.2353 2.15795 42.3937 1.31643C41.5522 0.474905 40.4113 0.00148483 39.2212 0H4.48784C3.29795 0.00178169 2.15731 0.475333 1.31603 1.31682C0.47475 2.15831 0.00148418 3.29907 0 4.48896V49.511C0.00148483 50.7011 0.474905 51.842 1.31643 52.6836C2.15795 53.5251 3.29887 53.9985 4.48896 54H39.2212C40.4113 53.9985 41.5522 53.5251 42.3937 52.6836C43.2353 51.842 43.7087 50.7011 43.7102 49.511V37.3235H50.4324L54.7755 40.7228C54.5673 41.2333 54.4606 41.7796 54.4612 42.3309C54.4601 43.16 54.7049 43.9707 55.1645 44.6606C55.6242 45.3505 56.2781 45.8886 57.0436 46.2069C57.8091 46.5252 58.6517 46.6093 59.465 46.4487C60.2783 46.288 61.0257 45.8898 61.6127 45.3044C62.1997 44.719 62.5999 43.9727 62.7627 43.1598C62.9256 42.3469 62.8437 41.504 62.5275 40.7377C62.2112 39.9714 61.6749 39.316 60.9862 38.8545C60.2975 38.393 59.4863 38.1461 58.6573 38.145ZM8.24847 32.7807H35.4617C35.7593 32.7807 36.0448 32.8989 36.2552 33.1094C36.4657 33.3198 36.5839 33.6053 36.5839 33.9029C36.5839 34.2005 36.4657 34.486 36.2552 34.6964C36.0448 34.9069 35.7593 35.0251 35.4617 35.0251H8.24735C7.94971 35.0251 7.66427 34.9069 7.45381 34.6964C7.24334 34.486 7.12511 34.2005 7.12511 33.9029C7.12511 33.6053 7.24334 33.3198 7.45381 33.1094C7.66427 32.8989 7.94971 32.7807 8.24735 32.7807H8.24847ZM7.12623 27.7642C7.12712 27.4669 7.24564 27.182 7.45591 26.9717C7.66618 26.7614 7.95111 26.6429 8.24847 26.642H35.4617C35.7593 26.642 36.0448 26.7602 36.2552 26.9707C36.4657 27.1812 36.5839 27.4666 36.5839 27.7642C36.5839 28.0619 36.4657 28.3473 36.2552 28.5578C36.0448 28.7683 35.7593 28.8865 35.4617 28.8865H8.24735C8.09985 28.8869 7.95372 28.8582 7.81736 28.802C7.681 28.7457 7.55711 28.6631 7.45282 28.5588C7.34852 28.4545 7.26587 28.3306 7.20963 28.1942C7.15339 28.0579 7.12466 27.9117 7.12511 27.7642H7.12623ZM8.24847 38.9081H14.3871C14.6848 38.9081 14.9702 39.0263 15.1807 39.2368C15.3911 39.4473 15.5094 39.7327 15.5094 40.0303C15.5094 40.328 15.3911 40.6134 15.1807 40.8239C14.9702 41.0344 14.6848 41.1526 14.3871 41.1526H8.24847C7.95084 41.1526 7.66539 41.0344 7.45493 40.8239C7.24447 40.6134 7.12623 40.328 7.12623 40.0303C7.12623 39.7327 7.24447 39.4473 7.45493 39.2368C7.66539 39.0263 7.95084 38.9081 8.24847 38.9081ZM35.4617 22.759H8.24735C7.94971 22.759 7.66427 22.6408 7.45381 22.4304C7.24334 22.2199 7.12511 21.9344 7.12511 21.6368C7.12511 21.3392 7.24334 21.0537 7.45381 20.8433C7.66427 20.6328 7.94971 20.5146 8.24735 20.5146H35.4628C35.7605 20.5146 36.0459 20.6328 36.2564 20.8433C36.4668 21.0537 36.5851 21.3392 36.5851 21.6368C36.5851 21.9344 36.4668 22.2199 36.2564 22.4304C36.0459 22.6408 35.7593 22.759 35.4617 22.759ZM7.12511 13.9719C7.12466 13.8244 7.15339 13.6783 7.20963 13.5419C7.26587 13.4056 7.34852 13.2817 7.45282 13.1774C7.55711 13.0731 7.681 12.9904 7.81736 12.9342C7.95372 12.8779 8.09985 12.8492 8.24735 12.8497H20.5134C20.8111 12.8497 21.0965 12.9679 21.307 13.1784C21.5175 13.3888 21.6357 13.6743 21.6357 13.9719C21.6357 14.2695 21.5175 14.555 21.307 14.7654C21.0965 14.9759 20.8111 15.0941 20.5134 15.0941H8.24847C7.95111 15.0933 7.66618 14.9747 7.45591 14.7645C7.24564 14.5542 7.12712 14.2693 7.12623 13.9719H7.12511Z" fill="#EEF1EF"/>
</svg>
