<svg width="54" height="54" viewBox="0 0 54 54" fill="none" xmlns="http://www.w3.org/2000/svg">
<path d="M29.8912 19.2904H31.8195V30.8548H29.8912V19.2904ZM22.1815 17.363H24.1099V36.637H22.1815V17.363ZM14.4719 22.1815H16.4003V27H14.4719V22.1815ZM37.6007 27H39.529V31.8185H37.6007V27Z" fill="#EEF1EF"/>
<path d="M27 45.3103C37.1126 45.3103 45.3103 37.1125 45.3103 27.0001C45.3103 16.8876 37.1124 8.6897 27 8.6897C16.8876 8.6897 8.68976 16.8875 8.68976 27.0001C8.70089 37.1079 16.8922 45.2992 27 45.3103ZM35.6733 27.0001C35.6733 25.9356 36.5361 25.0727 37.6007 25.0727V23.1453C37.6007 22.8897 37.7022 22.6446 37.8829 22.4638C38.0637 22.2831 38.3088 22.1816 38.5644 22.1816C38.82 22.1816 39.0651 22.2831 39.2459 22.4638C39.4266 22.6446 39.5281 22.8897 39.5281 23.1453V25.0727C40.5926 25.0727 41.4555 25.9356 41.4555 27.0001V31.8186C41.4555 32.8831 40.5925 33.7459 39.5281 33.7459V35.6733C39.5281 35.9289 39.4266 36.1741 39.2459 36.3548C39.0651 36.5355 38.82 36.6371 38.5644 36.6371C38.3088 36.6371 38.0637 36.5355 37.8829 36.3548C37.7022 36.1741 37.6007 35.9289 37.6007 35.6733V33.7459C36.5361 33.7459 35.6733 32.8831 35.6733 31.8186V27.0001ZM27.9637 19.2904C27.9637 18.2259 28.8265 17.3631 29.891 17.3631V13.5083C29.891 13.2527 29.9926 13.0076 30.1733 12.8268C30.354 12.6461 30.5992 12.5446 30.8548 12.5446C31.1104 12.5446 31.3555 12.6461 31.5362 12.8268C31.717 13.0076 31.8185 13.2527 31.8185 13.5083V17.3631C32.883 17.3631 33.7459 18.2259 33.7459 19.2904V30.8548C33.7459 31.9193 32.8829 32.7822 31.8185 32.7822V36.637C31.8185 36.8926 31.717 37.1377 31.5362 37.3184C31.3555 37.4992 31.1104 37.6007 30.8548 37.6007C30.5992 37.6007 30.354 37.4992 30.1733 37.3184C29.9926 37.1377 29.891 36.8926 29.891 36.637V32.7822C28.8265 32.7822 27.9637 31.9192 27.9637 30.8548V19.2904ZM20.2541 17.3631C20.2541 16.2986 21.117 15.4357 22.1815 15.4357V13.5083C22.1815 13.2527 22.2831 13.0076 22.4638 12.8268C22.6445 12.6461 22.8897 12.5446 23.1453 12.5446C23.4009 12.5446 23.646 12.6461 23.8267 12.8268C24.0075 13.0076 24.109 13.2527 24.109 13.5083V15.4357C25.1735 15.4357 26.0364 16.2986 26.0364 17.3631V36.6371C26.0364 37.7016 25.1735 38.5644 24.109 38.5644V40.4918C24.109 40.7474 24.0075 40.9926 23.8267 41.1733C23.646 41.354 23.4009 41.4556 23.1453 41.4556C22.8897 41.4556 22.6445 41.354 22.4638 41.1733C22.2831 40.9926 22.1815 40.7474 22.1815 40.4918V38.5644C21.117 38.5644 20.2541 37.7015 20.2541 36.6371V17.3631ZM12.5445 27.0001V22.1816C12.5445 21.1171 13.4074 20.2542 14.4719 20.2542V18.3268C14.4719 18.0712 14.5734 17.8261 14.7542 17.6453C14.9349 17.4646 15.18 17.3631 15.4356 17.3631C15.6912 17.3631 15.9364 17.4646 16.1171 17.6453C16.2978 17.8261 16.3994 18.0712 16.3994 18.3268V20.2542C17.4639 20.2542 18.3268 21.1171 18.3268 22.1816V27.0001C18.3268 28.0646 17.4639 28.9274 16.3994 28.9274V31.8186C16.3994 32.0742 16.2978 32.3193 16.1171 32.5C15.9364 32.6808 15.6912 32.7823 15.4356 32.7823C15.18 32.7823 14.9349 32.6808 14.7542 32.5C14.5734 32.3193 14.4719 32.0742 14.4719 31.8186V28.9274C13.4074 28.9274 12.5445 28.0645 12.5445 27.0001Z" fill="#EEF1EF"/>
<path d="M0.504063 30.1802L3.7633 31.9495C3.95809 32.0557 4.11025 32.2259 4.19408 32.4314L7.03892 39.2987C7.12309 39.5032 7.13499 39.7302 7.07265 39.9424L6.01841 43.4898C5.96919 43.6561 5.96578 43.8326 6.00854 44.0007C6.05129 44.1688 6.13862 44.3222 6.26131 44.4448L9.55712 47.7397C9.67982 47.8622 9.8333 47.9493 10.0014 47.9919C10.1695 48.0345 10.3459 48.0309 10.5121 47.9816L14.0682 46.9274C14.1571 46.9014 14.2493 46.8881 14.3419 46.8879C14.4685 46.888 14.5939 46.9129 14.711 46.9611L21.5783 49.8059C21.7837 49.8898 21.9539 50.0419 22.0601 50.2367L23.8198 53.496C23.9026 53.6484 24.025 53.7757 24.174 53.8644C24.3231 53.9532 24.4934 54 24.6669 54H29.3254C29.4989 54 29.6692 53.9532 29.8183 53.8645C29.9674 53.7758 30.0897 53.6484 30.1725 53.496L31.9418 50.2367C32.048 50.0419 32.2182 49.8898 32.4237 49.8059L39.2919 46.9611C39.4957 46.8767 39.7222 46.8648 39.9337 46.9274L43.4898 47.9816C43.6561 48.0308 43.8326 48.0342 44.0007 47.9915C44.1688 47.9487 44.3222 47.8614 44.4448 47.7387L47.7396 44.4429C47.8621 44.3202 47.9493 44.1667 47.9918 43.9987C48.0344 43.8306 48.0309 43.6541 47.9815 43.4879L46.9273 39.9328C46.865 39.7206 46.8769 39.4935 46.961 39.289L49.8059 32.4218C49.8897 32.2163 50.0419 32.0461 50.2367 31.9399L53.4959 30.1802C53.6484 30.0974 53.7757 29.9751 53.8644 29.826C53.9531 29.6769 53.9999 29.5066 53.9999 29.3332V24.6708C53.9999 24.4973 53.9531 24.327 53.8644 24.1779C53.7757 24.0288 53.6484 23.9065 53.4959 23.8237L50.2367 22.0544C50.0419 21.9482 49.8897 21.778 49.8059 21.5726L46.9611 14.7051C46.877 14.5006 46.8651 14.2735 46.9274 14.0613L47.9817 10.5062C48.0309 10.3399 48.0343 10.1634 47.9915 9.9953C47.9488 9.82721 47.8614 9.67378 47.7388 9.55119L44.4429 6.26019C44.3202 6.13768 44.1668 6.05055 43.9987 6.00798C43.8306 5.9654 43.6542 5.96896 43.4879 6.01827L39.9348 7.07251C39.7226 7.13485 39.4955 7.12295 39.291 7.03878L32.4238 4.19394C32.2183 4.11011 32.0481 3.95795 31.9419 3.76316L30.1802 0.504033C30.0975 0.351551 29.9751 0.224237 29.826 0.135525C29.6769 0.0468124 29.5066 -9.24428e-06 29.3331 2.69998e-09H24.6707C24.4972 -1.29819e-05 24.3269 0.0468082 24.1779 0.135522C24.0288 0.224236 23.9064 0.351552 23.8237 0.504033L22.0543 3.76327C21.9481 3.95806 21.7779 4.11022 21.5725 4.19405L14.709 7.03889C14.5045 7.12306 14.2774 7.13496 14.0653 7.07262L10.5102 6.01838C10.3439 5.96916 10.1673 5.96575 9.99926 6.0085C9.83117 6.05126 9.67774 6.13859 9.55515 6.26128L6.26022 9.55709C6.13771 9.67979 6.05058 9.83327 6.00801 10.0013C5.96543 10.1694 5.96899 10.3459 6.0183 10.5121L7.07254 14.0672C7.13488 14.2794 7.12298 14.5065 7.03881 14.711L4.19397 21.5764C4.11014 21.7818 3.95798 21.952 3.76319 22.0582L0.504063 23.8198C0.351598 23.9026 0.224294 24.0249 0.135583 24.174C0.0468714 24.3231 4.04663e-05 24.4934 3.00634e-05 24.6668V29.3254C-0.00135021 29.5002 0.0448221 29.6721 0.133606 29.8226C0.22239 29.9732 0.350443 30.0968 0.504063 30.1802ZM27 6.76225C38.177 6.76225 47.2377 15.823 47.2377 26.9999C47.2377 38.1768 38.177 47.2375 27 47.2375C15.8231 47.2375 6.76228 38.1769 6.76228 27C6.77451 15.8281 15.8281 6.77448 27 6.76225Z" fill="#EEF1EF"/>
</svg>
