<svg width="54" height="54" viewBox="0 0 54 54" fill="none" xmlns="http://www.w3.org/2000/svg">
<path d="M3.375 46.0898V6.32812H1.58203C0.708328 6.32812 0 7.03645 0 7.91016V52.418C0 53.2917 0.708328 54 1.58203 54H37.4414C38.3151 54 39.0234 53.2917 39.0234 52.418V50.8359H8.12109C5.5041 50.8359 3.375 48.7068 3.375 46.0898Z" fill="#EEF1EF"/>
<path d="M16.0312 35.0156H19.1953V38.1797H16.0312V35.0156ZM16.0312 9.70312H19.1953V12.8672H16.0312V9.70312ZM16.0312 22.3594H19.1953V25.5234H16.0312V22.3594ZM52.9735 27.0172L45.327 24.1497C44.9688 24.0154 44.5741 24.0154 44.216 24.1497L36.5695 27.0172C36.268 27.1303 36.0081 27.3327 35.8247 27.5974C35.6412 27.8621 35.543 28.1765 35.543 28.4985V36.1107C35.543 41.6823 38.9991 46.6695 44.216 48.6258C44.5741 48.7601 44.9688 48.7601 45.327 48.6258C50.5439 46.6695 54 41.6823 54 36.1107V28.4985C54 28.1765 53.9017 27.8621 53.7183 27.5974C53.5349 27.3327 53.275 27.1303 52.9735 27.0172ZM49.2461 34.2145L44.7715 38.6891C44.1536 39.3069 43.152 39.3069 42.5342 38.6891L40.2968 36.4518C39.6789 35.834 39.6789 34.8323 40.2968 34.2145C40.9146 33.5966 41.9162 33.5966 42.5341 34.2145L43.6528 35.3332L47.0088 31.9772C47.6266 31.3593 48.6283 31.3593 49.2461 31.9772C49.8639 32.595 49.8639 33.5966 49.2461 34.2145Z" fill="#EEF1EF"/>
<path d="M8.12109 47.6719H37.0939C35.3435 45.8819 34.0219 43.7183 33.2286 41.3438H27.1055C26.2318 41.3438 25.5234 40.6354 25.5234 39.7617C25.5234 38.888 26.2318 38.1797 27.1055 38.1797H32.5092C32.4226 37.4934 32.3791 36.8024 32.3789 36.1107V35.0156H27.1055C26.2318 35.0156 25.5234 34.3073 25.5234 33.4336C25.5234 32.5599 26.2318 31.8516 27.1055 31.8516H32.3789V28.6875H27.1055C26.2318 28.6875 25.5234 27.9792 25.5234 27.1055C25.5234 26.2318 26.2318 25.5234 27.1055 25.5234H33.4274C33.9603 24.8604 34.6619 24.353 35.4586 24.0546L43.1051 21.1872C43.8892 20.8935 44.737 20.8125 45.5625 20.9523V1.58203C45.5625 0.708328 44.8542 0 43.9805 0H8.12109C7.24739 0 6.53906 0.708328 6.53906 1.58203V46.0898C6.53906 46.9635 7.24739 47.6719 8.12109 47.6719ZM27.1055 6.53906H37.6523C38.526 6.53906 39.2344 7.24739 39.2344 8.12109C39.2344 8.9948 38.526 9.70312 37.6523 9.70312H27.1055C26.2318 9.70312 25.5234 8.9948 25.5234 8.12109C25.5234 7.24739 26.2318 6.53906 27.1055 6.53906ZM27.1055 12.8672H33.4336C34.3073 12.8672 35.0156 13.5755 35.0156 14.4492C35.0156 15.3229 34.3073 16.0312 33.4336 16.0312H27.1055C26.2318 16.0312 25.5234 15.3229 25.5234 14.4492C25.5234 13.5755 26.2318 12.8672 27.1055 12.8672ZM27.1055 19.1953H36.0703C36.944 19.1953 37.6523 19.9036 37.6523 20.7773C37.6523 21.651 36.944 22.3594 36.0703 22.3594H27.1055C26.2318 22.3594 25.5234 21.651 25.5234 20.7773C25.5234 19.9036 26.2318 19.1953 27.1055 19.1953ZM12.8672 8.12109C12.8672 7.24739 13.5755 6.53906 14.4492 6.53906H20.7773C21.651 6.53906 22.3594 7.24739 22.3594 8.12109V14.4492C22.3594 15.3229 21.651 16.0312 20.7773 16.0312H14.4492C13.5755 16.0312 12.8672 15.3229 12.8672 14.4492V8.12109ZM12.8672 20.7773C12.8672 19.9036 13.5755 19.1953 14.4492 19.1953H20.7773C21.651 19.1953 22.3594 19.9036 22.3594 20.7773V27.1055C22.3594 27.9792 21.651 28.6875 20.7773 28.6875H14.4492C13.5755 28.6875 12.8672 27.9792 12.8672 27.1055V20.7773ZM12.8672 33.4336C12.8672 32.5599 13.5755 31.8516 14.4492 31.8516H20.7773C21.651 31.8516 22.3594 32.5599 22.3594 33.4336V39.7617C22.3594 40.6354 21.651 41.3438 20.7773 41.3438H14.4492C13.5755 41.3438 12.8672 40.6354 12.8672 39.7617V33.4336Z" fill="#EEF1EF"/>
</svg>
