<svg width="57" height="57" viewBox="0 0 57 57" fill="none" xmlns="http://www.w3.org/2000/svg">
<path d="M22.8014 28.5012C22.8014 28.7531 22.9015 28.9948 23.0797 29.1729C23.2578 29.3511 23.4994 29.4511 23.7514 29.4511H33.251C33.5029 29.4511 33.7446 29.3511 33.9227 29.1729C34.1009 28.9948 34.2009 28.7531 34.2009 28.5012C34.2009 28.2492 34.1009 28.0076 33.9227 27.8295C33.7446 27.6513 33.5029 27.5512 33.251 27.5512H23.7514C23.4994 27.5512 23.2578 27.6513 23.0797 27.8295C22.9015 28.0076 22.8014 28.2492 22.8014 28.5012ZM32.6335 25.6513L33.859 21.0915L28.6342 21.842C28.5458 21.8515 28.4566 21.8515 28.3682 21.842L23.1434 21.0915L24.3689 25.6513H32.6335ZM32.909 31.3511H24.0934C20.284 34.4194 17.1017 40.8507 17.1017 45.6005V49.4003C17.1017 53.4471 20.208 57 23.7514 57H33.251C36.7943 57 39.9007 53.4471 39.9007 49.4003V45.6005C39.9007 40.8507 36.7183 34.4194 32.909 31.3511ZM29.4511 52.2502V54.1501H27.5512V52.2502H23.7514V50.3503H29.4511C30.207 50.3503 30.9319 50.05 31.4663 49.5156C32.0008 48.9811 32.301 48.2562 32.301 47.5004C32.301 46.7446 32.0008 46.0197 31.4663 45.4852C30.9319 44.9508 30.207 44.6505 29.4511 44.6505H27.5512C26.2915 44.6505 25.0834 44.1501 24.1926 43.2593C23.3018 42.3686 22.8014 41.1604 22.8014 39.9007C22.8014 38.641 23.3018 37.4328 24.1926 36.5421C25.0834 35.6513 26.2915 35.1509 27.5512 35.1509V33.251H29.4511V35.1509H33.251V37.0508H27.5512C26.7954 37.0508 26.0705 37.3511 25.536 37.8855C25.0016 38.42 24.7013 39.1449 24.7013 39.9007C24.7013 40.6565 25.0016 41.3814 25.536 41.9159C26.0705 42.4503 26.7954 42.7506 27.5512 42.7506H29.4511C30.7109 42.7506 31.919 43.251 32.8098 44.1418C33.7005 45.0325 34.2009 46.2407 34.2009 47.5004C34.2009 48.7601 33.7005 49.9683 32.8098 50.859C31.919 51.7498 30.7109 52.2502 29.4511 52.2502ZM35.0749 7.01307C35.005 7.18752 34.8843 7.33695 34.7285 7.44197C34.5727 7.54699 34.3889 7.60276 34.2009 7.60204H32.301V14.2518C32.301 14.5037 32.2009 14.7453 32.0228 14.9235C31.8446 15.1016 31.603 15.2017 31.3511 15.2017H25.6513C25.3994 15.2017 25.1577 15.1016 24.9796 14.9235C24.8014 14.7453 24.7013 14.5037 24.7013 14.2518V7.60204H22.8014C22.6135 7.60276 22.4297 7.54699 22.2739 7.44197C22.118 7.33695 21.9973 7.18752 21.9275 7.01307C21.8547 6.84007 21.8348 6.6494 21.8703 6.46512C21.9058 6.28084 21.9951 6.1112 22.1269 5.97761L27.8267 0.277848C28.0061 0.0998708 28.2485 0 28.5012 0C28.7539 0 28.9963 0.0998708 29.1757 0.277848L34.8754 5.97761C35.0072 6.1112 35.0965 6.28084 35.132 6.46512C35.1675 6.6494 35.1477 6.84007 35.0749 7.01307ZM20.9205 15.9427C20.9212 16.1951 20.8222 16.4375 20.645 16.6172L16.6172 20.645C16.4355 20.8192 16.1944 20.9178 15.9427 20.9205C15.6907 20.9195 15.4489 20.8207 15.2682 20.645L10.5659 15.9427L9.22648 17.2821C9.09418 17.4155 8.92529 17.5067 8.74117 17.5441C8.55706 17.5815 8.36598 17.5635 8.19211 17.4923C8.01824 17.4212 7.86937 17.3 7.76434 17.1442C7.65931 16.9885 7.60283 16.805 7.60204 16.6172V8.55201C7.60204 8.30006 7.70213 8.05843 7.88028 7.88028C8.05843 7.70213 8.30006 7.60204 8.55201 7.60204H16.6172C16.805 7.60283 16.9885 7.65931 17.1442 7.76434C17.3 7.86937 17.4212 8.01824 17.4923 8.19211C17.5635 8.36598 17.5815 8.55706 17.5441 8.74117C17.5067 8.92529 17.4155 9.09418 17.2821 9.22648L15.9427 10.5659L20.645 15.2682C20.7335 15.3567 20.8034 15.4619 20.8507 15.5777C20.898 15.6935 20.9217 15.8176 20.9205 15.9427ZM15.2017 25.6513V31.3511C15.2017 31.603 15.1016 31.8446 14.9235 32.0228C14.7453 32.2009 14.5037 32.301 14.2518 32.301H7.60204V34.2009C7.60276 34.3889 7.54699 34.5727 7.44197 34.7285C7.33695 34.8843 7.18752 35.005 7.01307 35.0749C6.90035 35.1282 6.7767 35.1542 6.65208 35.1509C6.39972 35.1516 6.1573 35.0526 5.97761 34.8754L0.277848 29.1757C0.0998708 28.9963 0 28.7539 0 28.5012C0 28.2485 0.0998708 28.0061 0.277848 27.8267L5.97761 22.1269C6.1112 21.9951 6.28084 21.9058 6.46512 21.8703C6.6494 21.8348 6.84007 21.8547 7.01307 21.9275C7.18752 21.9973 7.33695 22.118 7.44197 22.2739C7.54699 22.4297 7.60276 22.6135 7.60204 22.8014V24.7013H14.2518C14.5037 24.7013 14.7453 24.8014 14.9235 24.9796C15.1016 25.1577 15.2017 25.3994 15.2017 25.6513ZM49.4003 8.55201V16.6172C49.3995 16.805 49.343 16.9885 49.238 17.1442C49.133 17.3 48.9841 17.4212 48.8102 17.4923C48.6364 17.5635 48.4453 17.5815 48.2612 17.5441C48.0771 17.5067 47.9082 17.4155 47.7759 17.2821L46.4364 15.9427L41.7341 20.645C41.5535 20.8207 41.3117 20.9195 41.0597 20.9205C40.808 20.9178 40.5668 20.8192 40.3852 20.645L36.3574 16.6172C36.1802 16.4375 36.0811 16.1951 36.0819 15.9427C36.0806 15.8176 36.1043 15.6935 36.1516 15.5777C36.199 15.4619 36.2689 15.3567 36.3574 15.2682L41.0597 10.5659L39.7202 9.22648C39.5868 9.09418 39.4957 8.92529 39.4582 8.74117C39.4208 8.55706 39.4388 8.36598 39.51 8.19211C39.5812 8.01824 39.7023 7.86937 39.8581 7.76434C40.0139 7.65931 40.1973 7.60283 40.3852 7.60204H48.4504C48.7023 7.60204 48.9439 7.70213 49.1221 7.88028C49.3002 8.05843 49.4003 8.30006 49.4003 8.55201ZM56.7245 29.1757L51.0247 34.8754C50.8451 35.0526 50.6026 35.1516 50.3503 35.1509C50.2257 35.1542 50.102 35.1282 49.9893 35.0749C49.8148 35.005 49.6654 34.8843 49.5604 34.7285C49.4554 34.5727 49.3996 34.3889 49.4003 34.2009V32.301H42.7506C42.4986 32.301 42.257 32.2009 42.0789 32.0228C41.9007 31.8446 41.8006 31.603 41.8006 31.3511V25.6513C41.8006 25.3994 41.9007 25.1577 42.0789 24.9796C42.257 24.8014 42.4986 24.7013 42.7506 24.7013H49.4003V22.8014C49.3996 22.6135 49.4554 22.4297 49.5604 22.2739C49.6654 22.118 49.8148 21.9973 49.9893 21.9275C50.1623 21.8547 50.353 21.8348 50.5372 21.8703C50.7215 21.9058 50.8912 21.9951 51.0247 22.1269L56.7245 27.8267C56.9025 28.0061 57.0024 28.2485 57.0024 28.5012C57.0024 28.7539 56.9025 28.9963 56.7245 29.1757Z" fill="#EEF1EF"/>
</svg>
