<svg width="54" height="54" viewBox="0 0 54 54" fill="none" xmlns="http://www.w3.org/2000/svg">
<path d="M50.1597 6.04635H50.0747V1.47702C50.0747 0.661707 49.413 0 48.5976 0C47.7823 0 47.1206 0.661707 47.1206 1.47702V6.04635H47.0355C44.9181 6.04635 43.1953 7.76915 43.1953 9.88661V39.5961C43.1953 41.7135 44.9181 43.4363 47.0355 43.4363H47.1206V48.0056C47.1206 48.821 47.7823 49.4827 48.5976 49.4827C49.413 49.4827 50.0747 48.821 50.0747 48.0056V43.4363H50.1597C52.2772 43.4363 54 41.7135 54 39.5961V9.88661C54 7.76915 52.2772 6.04635 50.1597 6.04635ZM35.7617 20.3711H35.6766V18.106C35.6766 17.2906 35.0149 16.6289 34.1996 16.6289C33.3843 16.6289 32.7226 17.2906 32.7226 18.106V20.3711H32.6375C30.52 20.3711 28.7972 22.0939 28.7972 24.2114V46.4164C28.7972 48.5338 30.52 50.2566 32.6375 50.2566H32.7226V52.5218C32.7226 53.3371 33.3843 53.9988 34.1996 53.9988C35.0149 53.9988 35.6766 53.3371 35.6766 52.5218V50.2566H35.7617C37.8792 50.2566 39.602 48.5338 39.602 46.4164V24.2114C39.602 22.0939 37.8792 20.3711 35.7617 20.3711ZM21.3637 15.504H21.2786V12.4401C21.2786 11.6248 20.6169 10.9631 19.8016 10.9631C18.9863 10.9631 18.3246 11.6248 18.3246 12.4401V15.504H18.2395C16.122 15.504 14.3992 17.2268 14.3992 19.3443V32.9506C14.3992 35.0681 16.122 36.7909 18.2395 36.7909H18.3246V39.8548C18.3246 40.6702 18.9863 41.3319 19.8016 41.3319C20.6169 41.3319 21.2786 40.6702 21.2786 39.8548V36.7909H21.3637C23.4811 36.7909 25.2039 35.0681 25.2039 32.9506V19.3443C25.2039 17.2268 23.4811 15.504 21.3637 15.504ZM6.96446 6.73996H6.87939V1.47702C6.87939 0.661707 6.21768 0 5.40236 0C4.58705 0 3.92534 0.661707 3.92534 1.47702V6.73996H3.84026C1.7228 6.73996 0 8.46276 0 10.5802V38.008C0 40.1254 1.7228 41.8482 3.84026 41.8482H3.92534V47.1112C3.92534 47.9265 4.58705 48.5882 5.40236 48.5882C6.21768 48.5882 6.87939 47.9265 6.87939 47.1112V41.8482H6.96446C9.08193 41.8482 10.8047 40.1254 10.8047 38.008V10.5802C10.8047 8.46276 9.08193 6.73996 6.96446 6.73996Z" fill="#EEF1EF"/>
</svg>
