<svg width="58" height="54" viewBox="0 0 58 54" fill="none" xmlns="http://www.w3.org/2000/svg">
<path d="M15.3 25.3125C14.3688 25.3125 13.6125 26.0688 13.6125 27C13.6125 27.9312 14.3688 28.6875 15.3 28.6875C16.2312 28.6875 16.9875 27.9312 16.9875 27C16.9875 26.0688 16.2312 25.3125 15.3 25.3125ZM55.9125 0H1.6875C0.754875 0 0 0.754875 0 1.6875V13.5H57.6V1.6875C57.6 0.754875 56.8451 0 55.9125 0ZM8.54696 8.4375C7.61479 8.4375 6.85946 7.68206 6.85946 6.75C6.85946 5.81794 7.61479 5.0625 8.54696 5.0625C9.47914 5.0625 10.2345 5.81794 10.2345 6.75C10.2345 7.68206 9.47902 8.4375 8.54696 8.4375ZM15.297 8.4375C14.3648 8.4375 13.6095 7.68206 13.6095 6.75C13.6095 5.81794 14.3648 5.0625 15.297 5.0625C16.2291 5.0625 16.9845 5.81794 16.9845 6.75C16.9845 7.68206 16.229 8.4375 15.297 8.4375ZM22.047 8.4375C21.1148 8.4375 20.3595 7.68206 20.3595 6.75C20.3595 5.81794 21.1148 5.0625 22.047 5.0625C22.9791 5.0625 23.7345 5.81794 23.7345 6.75C23.7345 7.68206 22.979 8.4375 22.047 8.4375ZM39.0375 8.4375H35.55C34.6174 8.4375 33.8625 7.68262 33.8625 6.75C33.8625 5.81737 34.6174 5.0625 35.55 5.0625H39.0375C39.9701 5.0625 40.725 5.81737 40.725 6.75C40.725 7.68262 39.9701 8.4375 39.0375 8.4375ZM49.1625 8.4375H45.7875C44.8549 8.4375 44.1 7.68262 44.1 6.75C44.1 5.81737 44.8549 5.0625 45.7875 5.0625H49.1625C50.0951 5.0625 50.85 5.81737 50.85 6.75C50.85 7.68262 50.0951 8.4375 49.1625 8.4375ZM20.3625 40.5C20.3625 37.7085 18.0913 35.4375 15.3 35.4375C12.5086 35.4375 10.2375 37.7086 10.2375 40.5V45.5625H20.3625V40.5Z" fill="#EEF1EF"/>
<path d="M0 52.3125C0 53.2451 0.754875 54 1.6875 54H55.9125C56.8451 54 57.6 53.2451 57.6 52.3125V16.875H0V52.3125ZM27.1125 23.625C27.1125 22.6924 27.8674 21.9375 28.8 21.9375H49.1625C50.0951 21.9375 50.85 22.6924 50.85 23.625V30.375C50.85 31.3076 50.0951 32.0625 49.1625 32.0625H28.8C27.8674 32.0625 27.1125 31.3076 27.1125 30.375V23.625ZM28.8 35.4375H49.1625C50.0951 35.4375 50.85 36.1924 50.85 37.125C50.85 38.0576 50.0951 38.8125 49.1625 38.8125H28.8C27.8674 38.8125 27.1125 38.0576 27.1125 37.125C27.1125 36.1924 27.8674 35.4375 28.8 35.4375ZM28.8 42.1875H49.1625C50.0951 42.1875 50.85 42.9424 50.85 43.875C50.85 44.8076 50.0951 45.5625 49.1625 45.5625H28.8C27.8674 45.5625 27.1125 44.8076 27.1125 43.875C27.1125 42.9424 27.8674 42.1875 28.8 42.1875ZM6.8625 40.5C6.8625 35.8479 10.6479 32.0625 15.3 32.0625C12.5085 32.0625 10.2375 29.7913 10.2375 27C10.2375 24.2086 12.5086 21.9375 15.3 21.9375C18.0913 21.9375 20.3625 24.2086 20.3625 27C20.3625 29.7913 18.0913 32.0625 15.3 32.0625C19.9521 32.0625 23.7375 35.8479 23.7375 40.5V47.25C23.7375 48.1826 22.9826 48.9375 22.05 48.9375H8.55C7.61737 48.9375 6.8625 48.1826 6.8625 47.25V40.5Z" fill="#EEF1EF"/>
<path d="M30.4875 25.3125H47.475V28.6875H30.4875V25.3125Z" fill="#EEF1EF"/>
</svg>
