<svg width="26" height="26" viewBox="0 0 26 26" fill="none" xmlns="http://www.w3.org/2000/svg">
<g id="Insta F 1">
<path id="Vector" d="M24.5518 8.64626C24.4988 7.44508 24.3045 6.61935 24.0261 5.90376C23.7389 5.14423 23.2972 4.46424 22.7185 3.89893C22.1529 3.32484 21.4682 2.87872 20.7172 2.59618C19.9973 2.31796 19.1756 2.12365 17.974 2.07075C16.7635 2.01325 16.3792 2 13.309 2C10.2388 2 9.85449 2.01325 8.64845 2.06624C7.44692 2.11924 6.62087 2.31363 5.90527 2.59167C5.14527 2.87872 4.46505 3.32033 3.89956 3.89893C3.32527 4.4642 2.87923 5.14869 2.59637 5.89943C2.31807 6.61935 2.12374 7.44066 2.07077 8.64176C2.0133 9.85191 2 10.2361 2 13.3053C2 16.3745 2.0133 16.7587 2.06626 17.9643C2.11927 19.1655 2.31374 19.9912 2.59209 20.7068C2.87923 21.4663 3.32527 22.1463 3.89956 22.7116C4.46505 23.2857 5.14978 23.7318 5.90076 24.0144C6.62083 24.2926 7.44241 24.4869 8.64417 24.5398C9.84999 24.593 10.2345 24.606 13.3047 24.606C16.3749 24.606 16.7592 24.593 17.9653 24.5398C19.1668 24.4868 19.9928 24.2926 20.7084 24.0144C21.46 23.7239 22.1426 23.2796 22.7124 22.71C23.2822 22.1404 23.7267 21.4581 24.0173 20.7068C24.2955 19.9869 24.49 19.1654 24.5429 17.9643C24.5959 16.7587 24.6092 16.3745 24.6092 13.3053C24.6092 10.2361 24.6047 9.85186 24.5518 8.64626ZM22.5154 17.876C22.4667 18.98 22.2812 19.5762 22.1266 19.9736C21.7466 20.9584 20.9647 21.7401 19.9795 22.1199C19.582 22.2745 18.9813 22.4599 17.8812 22.5084C16.6884 22.5615 16.3307 22.5746 13.3135 22.5746C10.2963 22.5746 9.93405 22.5615 8.74559 22.5084C7.6412 22.4599 7.04483 22.2745 6.64725 22.1199C6.15703 21.9388 5.71081 21.6517 5.34857 21.2764C4.97307 20.9098 4.68593 20.4682 4.50472 19.9781C4.35011 19.5807 4.16461 18.98 4.11615 17.8805C4.06296 16.6881 4.04989 16.3303 4.04989 13.3141C4.04989 10.2978 4.06296 9.93572 4.11615 8.74788C4.16461 7.64385 4.35011 7.04767 4.50472 6.65022C4.68593 6.15994 4.97307 5.71396 5.35307 5.35175C5.71955 4.97638 6.16131 4.68933 6.65175 4.5084C7.04933 4.35384 7.65021 4.16836 8.7501 4.11974C9.94285 4.06674 10.3008 4.0535 13.3178 4.0535C16.3395 4.0535 16.6972 4.06674 17.8857 4.11974C18.9901 4.1684 19.5865 4.35379 19.984 4.50836C20.4743 4.68933 20.9205 4.97638 21.2827 5.35175C21.6582 5.71833 21.9454 6.15994 22.1266 6.65022C22.2812 7.04767 22.4667 7.64813 22.5153 8.74788C22.5683 9.94023 22.5816 10.2978 22.5816 13.3141C22.5816 16.3303 22.5684 16.6836 22.5154 17.876Z" fill="#EEF1EF"/>
<path id="Vector_2" d="M13.3084 7.49838C10.1013 7.49838 7.49927 10.0994 7.49927 13.3056C7.49927 16.5118 10.1013 19.1128 13.3084 19.1128C16.5155 19.1128 19.1175 16.5118 19.1175 13.3056C19.1175 10.0994 16.5155 7.49838 13.3084 7.49838ZM13.3084 17.0725C11.2278 17.0725 9.5401 15.3857 9.5401 13.3056C9.5401 11.2255 11.2278 9.53863 13.3083 9.53863C15.3891 9.53863 17.0766 11.2255 17.0766 13.3056C17.0766 15.3857 15.3891 17.0725 13.3084 17.0725ZM20.7035 7.26875C20.7035 8.01746 20.0962 8.6245 19.3471 8.6245C18.5982 8.6245 17.991 8.01746 17.991 7.26875C17.991 6.51995 18.5982 5.91309 19.3472 5.91309C20.0962 5.91309 20.7035 6.51991 20.7035 7.26875Z" fill="#EEF1EF"/>
</g>
</svg>
