<svg width="26" height="26" viewBox="0 0 26 26" fill="none" xmlns="http://www.w3.org/2000/svg">
<g id="Linkedin F 1">
<path id="Vector" d="M22.2728 21.2668V14.5766C22.2728 11.2886 21.5647 8.77687 17.7274 8.77687C15.8773 8.77687 14.6439 9.78154 14.1414 10.7405H14.0957V9.0737H10.464V21.2668H14.2556V15.2159C14.2556 13.6176 14.5525 12.0877 16.5169 12.0877C18.4584 12.0877 18.4812 13.8916 18.4812 15.3072V21.2439H22.2728V21.2668ZM4.29693 9.0737H8.08854V21.2668H4.29693V9.0737ZM6.19274 3C4.98216 3 4 3.98184 4 5.19201C4 6.40219 4.98216 7.40686 6.19274 7.40686C7.40331 7.40686 8.38547 6.40219 8.38547 5.19201C8.38547 3.98184 7.40331 3 6.19274 3Z" fill="#EEF1EF"/>
</g>
</svg>
