<svg fill="#000000" xmlns="http://www.w3.org/2000/svg"  viewBox="0 0 50 50" width="100px" height="100px"><path d="M41.86 21.321v-1.539h-2.919l-1.283-.022c-1.097 0-1.847.722-2.141 1.561v-1.539h-3.269v9.979h3.269v-2.14-3.312c0-.995.806-1.801 1.801-1.801h1.274v7.253h3.269v-2.14-3.312c0-.995.806-1.801 1.801-1.801h1.623v-2.726l-1.283-.022C42.905 19.759 42.156 20.482 41.86 21.321zM18.597 19.991L16.843 25.758 15.089 19.991 11.82 19.991 15.371 29.97 15.562 29.97 18.124 29.97 18.315 29.97 21.866 19.991zM5.239 19.991v-.665c0-.583.472-1.055 1.055-1.055h2.064v-2.737H5.523c-1.962 0-3.553 1.591-3.553 3.553v.905H.059v2.645h1.911v7.334H5.24v-7.334h3.118v7.334h3.269v-7.334-2.645H8.358 5.239zM26.398 19.857H26c-2.678 0-4.849 2.171-4.849 4.849v.548c0 2.678 2.171 4.849 4.849 4.849h.885c1.834 0 3.403-1.132 4.048-2.735l-2.884-.842c0 0-.345.988-1.548.988-1.358 0-2.077-.744-2.172-1.586h-.001v-.005c-.007-.061-.01-.123-.01-.185h3.688 3.242v-1.032C31.248 22.028 29.077 19.857 26.398 19.857zM24.322 23.814c.039-.897.777-1.613 1.684-1.613h.312c.907 0 1.645.716 1.684 1.613H24.322zM47.932 26.136c-1.123 0-2.033.91-2.033 2.033s.91 2.033 2.033 2.033c1.123 0 2.033-.91 2.033-2.033C49.964 27.046 49.055 26.136 47.932 26.136z"/></svg>