<?xml version="1.0" encoding="UTF-8"?>
<svg xmlns="http://www.w3.org/2000/svg" xmlns:xlink="http://www.w3.org/1999/xlink" viewBox="0 0 100 100" width="100px" height="100px">
<g id="surface87088713">
<path style=" stroke:none;fill-rule:nonzero;fill:rgb(0%,18.82353%,28.627452%);fill-opacity:1;" d="M 50 6 C 25.699219 6 6 25.699219 6 50 C 6 72.058594 22.25 90.273438 43.425781 93.457031 L 43.425781 61.660156 L 32.539062 61.660156 L 32.539062 50.097656 L 43.425781 50.097656 L 43.425781 42.398438 C 43.425781 29.65625 49.632812 24.0625 60.222656 24.0625 C 65.292969 24.0625 67.976562 24.441406 69.246094 24.613281 L 69.246094 34.707031 L 62.023438 34.707031 C 57.527344 34.707031 55.957031 38.96875 55.957031 43.773438 L 55.957031 50.097656 L 69.132812 50.097656 L 67.34375 61.660156 L 55.957031 61.660156 L 55.957031 93.550781 C 77.433594 90.636719 94 72.273438 94 50 C 94 25.699219 74.300781 6 50 6 Z M 50 6 "/>
</g>
</svg>
