<svg width="61" height="60" viewBox="0 0 61 60" fill="none" xmlns="http://www.w3.org/2000/svg">
<g clip-path="url(#clip0_7_1426)">
<path d="M18 20C20.0711 20 21.75 18.8807 21.75 17.5C21.75 16.1193 20.0711 15 18 15C15.9289 15 14.25 16.1193 14.25 17.5C14.25 18.8807 15.9289 20 18 20Z" fill="#39285E"/>
<path d="M31.75 23.75C31.75 26.4695 30.9436 29.1279 29.4327 31.3891C27.9218 33.6503 25.7744 35.4126 23.2619 36.4533C20.7494 37.494 17.9848 37.7663 15.3175 37.2358C12.6503 36.7053 10.2003 35.3957 8.27729 33.4727C6.35432 31.5497 5.04476 29.0997 4.51421 26.4325C3.98366 23.7653 4.25596 21.0006 5.29666 18.4881C6.33737 15.9756 8.09974 13.8282 10.3609 12.3173C12.6221 10.8064 15.2805 10 18 10C19.806 9.99902 21.5944 10.354 23.2631 11.0447C24.9317 11.7353 26.4479 12.7481 27.7249 14.0251C29.0019 15.3021 30.0147 16.8183 30.7054 18.4869C31.396 20.1556 31.751 21.944 31.75 23.75ZM21.75 17.5C21.75 16.125 20.075 15 18 15C15.925 15 14.25 16.125 14.25 17.5C14.25 18.875 15.925 20 18 20C20.075 20 21.75 18.875 21.75 17.5Z" fill="#6F60BA"/>
<path d="M43 28.75C45.0711 28.75 46.75 27.6307 46.75 26.25C46.75 24.8693 45.0711 23.75 43 23.75C40.9289 23.75 39.25 24.8693 39.25 26.25C39.25 27.6307 40.9289 28.75 43 28.75Z" fill="#39285E"/>
<path d="M43 18.75C45.7195 18.75 48.3779 19.5564 50.6391 21.0673C52.9003 22.5782 54.6626 24.7256 55.7033 27.2381C56.744 29.7506 57.0163 32.5153 56.4858 35.1825C55.9553 37.8497 54.6457 40.2997 52.7227 42.2227C50.7997 44.1457 48.3497 45.4553 45.6825 45.9858C43.0153 46.5163 40.2506 46.244 37.7381 45.2033C35.2256 44.1626 33.0782 42.4003 31.5673 40.1391C30.0564 37.8779 29.25 35.2195 29.25 32.5C29.249 30.694 29.604 28.9056 30.2946 27.2369C30.9853 25.5683 31.9981 24.0521 33.2751 22.7751C34.5521 21.4981 36.0683 20.4853 37.7369 19.7947C39.4056 19.104 41.194 18.749 43 18.75ZM46.75 26.25C46.75 24.875 45.075 23.75 43 23.75C40.925 23.75 39.25 24.875 39.25 26.25C39.25 27.625 40.925 28.75 43 28.75C45.075 28.75 46.75 27.625 46.75 26.25Z" fill="#7E6DD4"/>
<path d="M10.5 48.75C11.8807 48.75 13 47.0711 13 45C13 42.9289 11.8807 41.25 10.5 41.25C9.11929 41.25 8 42.9289 8 45C8 47.0711 9.11929 48.75 10.5 48.75Z" fill="#39285E"/>
<path d="M18 31.25C20.7195 31.25 23.3779 32.0564 25.6391 33.5673C27.9003 35.0782 29.6626 37.2256 30.7033 39.7381C31.744 42.2506 32.0163 45.0153 31.4858 47.6825C30.9553 50.3497 29.6457 52.7997 27.7227 54.7227C25.7997 56.6457 23.3497 57.9553 20.6825 58.4858C18.0153 59.0163 15.2506 58.744 12.7381 57.7033C10.2256 56.6626 8.07816 54.9003 6.56729 52.6391C5.05643 50.3779 4.25 47.7195 4.25 45C4.24902 43.194 4.604 41.4056 5.29465 39.7369C5.9853 38.0683 6.99808 36.5521 8.27509 35.2751C9.55209 33.9981 11.0683 32.9853 12.7369 32.2946C14.4056 31.604 16.194 31.249 18 31.25ZM13 45C13 42.925 11.875 41.25 10.5 41.25C9.125 41.25 8 42.925 8 45C8 47.075 9.125 48.75 10.5 48.75C11.875 48.75 13 47.075 13 45Z" fill="#7E6DD4"/>
<path d="M31.75 23.6325C32.1475 23.7125 32.375 23.75 32.375 23.75L32.4088 23.7288C32.6213 23.4713 32.8512 23.2287 33.0825 22.9875C33.9802 21.3453 34.3856 19.4791 34.25 17.6125C34.25 17.6125 34.25 4.3125 21.125 1.25C20.0697 4.07592 19.4787 7.054 19.375 10.0688C22.7475 10.4051 25.8767 11.9761 28.161 14.4799C30.4453 16.9836 31.7236 20.2434 31.75 23.6325Z" fill="#4E8C00"/>
<path d="M43 18.75C46.5678 18.7479 49.9955 20.1382 52.5538 22.625C53.4633 21.8274 54.1954 20.848 54.7029 19.7499C55.2103 18.6518 55.4819 17.4595 55.5 16.25C55.5 6.25 53 1.25 53 1.25C48.8105 6.72853 45.1681 12.6045 42.125 18.7938C42.415 18.7763 42.705 18.75 43 18.75Z" fill="#63B300"/>
<path d="M53 1.25C36.8175 4.7175 35.6 18.8638 35.5087 20.9763C37.4885 19.6893 39.768 18.9374 42.125 18.7938C45.168 12.6045 48.8104 6.72853 53 1.25Z" fill="#4E8C00"/>
<path d="M43 28.75C45.0711 28.75 46.75 27.6307 46.75 26.25C46.75 24.8693 45.0711 23.75 43 23.75C40.9289 23.75 39.25 24.8693 39.25 26.25C39.25 27.6307 40.9289 28.75 43 28.75Z" fill="#39285E"/>
<path d="M43 18.75C45.7195 18.75 48.3779 19.5564 50.6391 21.0673C52.9003 22.5782 54.6626 24.7256 55.7033 27.2381C56.744 29.7506 57.0163 32.5153 56.4858 35.1825C55.9553 37.8497 54.6457 40.2997 52.7227 42.2227C50.7997 44.1457 48.3497 45.4553 45.6825 45.9858C43.0153 46.5163 40.2506 46.244 37.7381 45.2033C35.2256 44.1626 33.0782 42.4003 31.5673 40.1391C30.0564 37.8779 29.25 35.2195 29.25 32.5C29.249 30.694 29.604 28.9056 30.2946 27.2369C30.9853 25.5683 31.9981 24.0521 33.2751 22.7751C34.5521 21.4981 36.0683 20.4853 37.7369 19.7947C39.4056 19.104 41.194 18.749 43 18.75ZM46.75 26.25C46.75 24.875 45.075 23.75 43 23.75C40.925 23.75 39.25 24.875 39.25 26.25C39.25 27.625 40.925 28.75 43 28.75C45.075 28.75 46.75 27.625 46.75 26.25Z" fill="#7E6DD4"/>
<path d="M43 18.75C40.2805 18.75 37.6221 19.5564 35.3609 21.0673C33.0997 22.5782 31.3374 24.7256 30.2967 27.2381C29.256 29.7506 28.9837 32.5153 29.5142 35.1825C30.0448 37.8497 31.3543 40.2997 33.2773 42.2227C35.2003 44.1457 37.6503 45.4553 40.3175 45.9858C42.9848 46.5163 45.7494 46.244 48.2619 45.2033C50.7744 44.1626 52.9218 42.4003 54.4327 40.1391C55.9436 37.8779 56.75 35.2195 56.75 32.5C56.751 30.694 56.396 28.9056 55.7054 27.2369C55.0147 25.5683 54.0019 24.0521 52.7249 22.7751C51.4479 21.4981 49.9317 20.4853 48.2631 19.7947C46.5944 19.104 44.806 18.749 43 18.75ZM43 40C36.0913 40 30.5 35.5275 30.5 30C30.5 24.4725 36.0913 20 43 20C49.9088 20 55.5 24.4725 55.5 30C55.5 35.5275 49.9088 40 43 40Z" fill="#5F4A9E"/>
<path d="M43 31.25C47.8325 31.25 51.75 28.7316 51.75 25.625C51.75 22.5184 47.8325 20 43 20C38.1675 20 34.25 22.5184 34.25 25.625C34.25 28.7316 38.1675 31.25 43 31.25Z" fill="#9883FF"/>
<path d="M43 30C45.7614 30 48 28.3211 48 26.25C48 24.1789 45.7614 22.5 43 22.5C40.2386 22.5 38 24.1789 38 26.25C38 28.3211 40.2386 30 43 30Z" fill="#5F4A9E"/>
<path d="M43 28.75C45.0711 28.75 46.75 27.6307 46.75 26.25C46.75 24.8693 45.0711 23.75 43 23.75C40.9289 23.75 39.25 24.8693 39.25 26.25C39.25 27.6307 40.9289 28.75 43 28.75Z" fill="#39285E"/>
<path d="M43 25C43.7189 24.9345 44.4415 25.0762 45.0824 25.4085C45.7233 25.7408 46.2555 26.2497 46.6163 26.875C46.6997 26.6769 46.7451 26.4649 46.75 26.25C46.75 24.875 45.075 23.75 43 23.75C40.925 23.75 39.25 24.875 39.25 26.25C39.2549 26.4649 39.3003 26.6769 39.3838 26.875C39.7445 26.2497 40.2767 25.7408 40.9176 25.4085C41.5585 25.0762 42.2811 24.9345 43 25Z" fill="#261647"/>
<path d="M52.4075 27.5062C52.3175 27.5193 52.2299 27.5454 52.1475 27.5837C51.4525 27.8962 51.0425 28.8337 50.5475 29.3825C49.1896 30.8842 47.4141 31.9463 45.4487 32.4325C45.232 32.4501 45.0213 32.5124 44.8298 32.6154C44.6384 32.7184 44.4703 32.86 44.3362 33.0312C44.2534 33.229 44.2375 33.4484 44.291 33.656C44.3444 33.8637 44.4644 34.0481 44.6325 34.1812C44.9742 34.4358 45.3736 34.6019 45.795 34.665C47.3654 35.1032 49.0253 35.1067 50.5975 34.675C51.3505 34.408 52.0408 33.9897 52.626 33.4458C53.2112 32.9019 53.6788 32.244 54 31.5125C54.2007 31.0437 54.2757 30.5307 54.2176 30.0241C54.1595 29.5176 53.9703 29.0349 53.6687 28.6237C53.355 28.1062 53.0075 27.4262 52.4075 27.5062Z" fill="#9883FF"/>
<path d="M18 20C20.0711 20 21.75 18.8807 21.75 17.5C21.75 16.1193 20.0711 15 18 15C15.9289 15 14.25 16.1193 14.25 17.5C14.25 18.8807 15.9289 20 18 20Z" fill="#39285E"/>
<path d="M31.75 23.75C31.75 26.4695 30.9436 29.1279 29.4327 31.3891C27.9218 33.6503 25.7744 35.4126 23.2619 36.4533C20.7494 37.494 17.9848 37.7663 15.3175 37.2358C12.6503 36.7053 10.2003 35.3957 8.27729 33.4727C6.35432 31.5497 5.04476 29.0997 4.51421 26.4325C3.98366 23.7653 4.25596 21.0006 5.29666 18.4881C6.33737 15.9756 8.09974 13.8282 10.3609 12.3173C12.6221 10.8064 15.2805 10 18 10C19.806 9.99902 21.5944 10.354 23.2631 11.0447C24.9317 11.7353 26.4479 12.7481 27.7249 14.0251C29.0019 15.3021 30.0147 16.8183 30.7054 18.4869C31.396 20.1556 31.751 21.944 31.75 23.75ZM21.75 17.5C21.75 16.125 20.075 15 18 15C15.925 15 14.25 16.125 14.25 17.5C14.25 18.875 15.925 20 18 20C20.075 20 21.75 18.875 21.75 17.5Z" fill="#6F60BA"/>
<path d="M18 10C15.2805 10 12.6221 10.8064 10.3609 12.3173C8.09974 13.8282 6.33737 15.9756 5.29666 18.4881C4.25596 21.0006 3.98366 23.7653 4.51421 26.4325C5.04476 29.0997 6.35432 31.5497 8.27729 33.4727C10.2003 35.3957 12.6503 36.7053 15.3175 37.2358C17.9848 37.7663 20.7494 37.494 23.2619 36.4533C25.7744 35.4126 27.9218 33.6503 29.4327 31.3891C30.9436 29.1279 31.75 26.4695 31.75 23.75C31.751 21.944 31.396 20.1556 30.7054 18.4869C30.0147 16.8183 29.0019 15.3021 27.7249 14.0251C26.4479 12.7481 24.9317 11.7353 23.2631 11.0447C21.5944 10.354 19.806 9.99902 18 10ZM18 31.25C11.0913 31.25 5.50001 26.7775 5.50001 21.25C5.50001 15.7225 11.0913 11.25 18 11.25C24.9088 11.25 30.5 15.7225 30.5 21.25C30.5 26.7775 24.9088 31.25 18 31.25Z" fill="#483584"/>
<path d="M18 22.5C22.8325 22.5 26.75 19.9816 26.75 16.875C26.75 13.7684 22.8325 11.25 18 11.25C13.1675 11.25 9.25 13.7684 9.25 16.875C9.25 19.9816 13.1675 22.5 18 22.5Z" fill="#9883FF"/>
<path d="M18 21.25C20.7614 21.25 23 19.5711 23 17.5C23 15.4289 20.7614 13.75 18 13.75C15.2386 13.75 13 15.4289 13 17.5C13 19.5711 15.2386 21.25 18 21.25Z" fill="#5F4A9E"/>
<path d="M18 20C20.0711 20 21.75 18.8807 21.75 17.5C21.75 16.1193 20.0711 15 18 15C15.9289 15 14.25 16.1193 14.25 17.5C14.25 18.8807 15.9289 20 18 20Z" fill="#39285E"/>
<path d="M18 16.25C18.7189 16.1845 19.4415 16.3262 20.0824 16.6585C20.7233 16.9908 21.2555 17.4997 21.6162 18.125C21.6997 17.9269 21.7451 17.7149 21.75 17.5C21.75 16.125 20.075 15 18 15C15.925 15 14.25 16.125 14.25 17.5C14.2549 17.7149 14.3003 17.9269 14.3838 18.125C14.7445 17.4997 15.2767 16.9908 15.9176 16.6585C16.5585 16.3262 17.2811 16.1845 18 16.25Z" fill="#261647"/>
<path d="M27.4075 18.7562C27.3175 18.7693 27.2299 18.7954 27.1475 18.8337C26.4525 19.1462 26.0425 20.0837 25.5475 20.6325C24.1896 22.1342 22.4141 23.1963 20.4487 23.6825C20.232 23.7001 20.0213 23.7624 19.8298 23.8654C19.6384 23.9684 19.4703 24.11 19.3362 24.2812C19.2534 24.479 19.2375 24.6984 19.291 24.906C19.3444 25.1137 19.4644 25.2981 19.6325 25.4312C19.9742 25.6858 20.3735 25.8519 20.795 25.915C22.3654 26.3532 24.0253 26.3567 25.5975 25.925C26.3505 25.658 27.0408 25.2397 27.626 24.6958C28.2112 24.1519 28.6788 23.494 29 22.7625C29.2007 22.2937 29.2757 21.7807 29.2176 21.2741C29.1595 20.7676 28.9703 20.2849 28.6687 19.8737C28.355 19.3562 28.0075 18.6762 27.4075 18.7562Z" fill="#7E6DD4"/>
<path d="M9.26873 34.375C11.7271 32.3496 14.8147 31.2445 18 31.25C15.5253 31.2674 13.0862 30.6598 10.9087 29.4838C9.57331 30.2829 8.3831 31.3028 7.38873 32.5C7.95402 33.1837 8.58357 33.8116 9.26873 34.375Z" fill="#39285E"/>
<path d="M30.4838 20.9912C30.0472 21.2739 29.6269 21.5811 29.225 21.9112C29.1975 22.2049 29.1233 22.4923 29.005 22.7625C28.4143 24.0765 27.3613 25.1277 26.0463 25.7162C25.4246 26.8133 24.9577 27.9911 24.6588 29.2162C22.5468 28.0449 20.1629 27.4524 17.7483 27.4987C15.3337 27.5451 12.9742 28.2285 10.9088 29.48C12.9975 30.5888 15.3171 31.1924 17.6814 31.2424C20.0457 31.2923 22.3888 30.7871 24.5225 29.7675C24.7138 29.6737 24.9075 29.5812 25.0913 29.48C26.6511 28.7233 27.9773 27.5589 28.9295 26.1101C29.8816 24.6613 30.4243 22.982 30.5 21.25C30.5 21.1625 30.4863 21.0775 30.4838 20.9912Z" fill="#483584"/>
<path d="M31.3413 20.47C31.0475 20.6325 30.7625 20.8087 30.4837 20.9912C30.4837 21.0775 30.5 21.1625 30.5 21.25C30.425 22.9826 29.8826 24.6628 28.9304 26.1123C27.9782 27.5618 26.6516 28.7268 25.0913 29.4837C24.9075 29.585 24.7163 29.6775 24.5225 29.7712C22.4895 30.755 20.2585 31.2608 18 31.25C21.1821 31.2626 24.2638 32.3656 26.7313 34.375C27.4147 33.8113 28.0425 33.1834 28.6063 32.5C28.8488 32.2062 29.0738 31.8975 29.2913 31.5837C29.4494 29.1018 30.2818 26.7101 31.6987 24.6662C31.7188 24.3625 31.745 24.0587 31.745 23.75C31.7425 22.6444 31.6069 21.5431 31.3413 20.47Z" fill="#39285E"/>
<path d="M29 22.7625C29.1183 22.4923 29.1925 22.2049 29.22 21.9113C27.9393 22.9772 26.8623 24.2663 26.0413 25.7163C27.3563 25.1278 28.4093 24.0766 29 22.7625Z" fill="#5F4A9E"/>
<path d="M10.5 48.75C11.8807 48.75 13 47.0711 13 45C13 42.9289 11.8807 41.25 10.5 41.25C9.11929 41.25 8 42.9289 8 45C8 47.0711 9.11929 48.75 10.5 48.75Z" fill="#39285E"/>
<path d="M18 31.25C20.7195 31.25 23.3779 32.0564 25.6391 33.5673C27.9003 35.0782 29.6626 37.2256 30.7033 39.7381C31.744 42.2506 32.0163 45.0153 31.4858 47.6825C30.9553 50.3497 29.6457 52.7997 27.7227 54.7227C25.7997 56.6457 23.3497 57.9553 20.6825 58.4858C18.0153 59.0163 15.2506 58.744 12.7381 57.7033C10.2256 56.6626 8.07816 54.9003 6.56729 52.6391C5.05643 50.3779 4.25 47.7195 4.25 45C4.24902 43.194 4.604 41.4056 5.29465 39.7369C5.9853 38.0683 6.99808 36.5521 8.27509 35.2751C9.55209 33.9981 11.0683 32.9853 12.7369 32.2946C14.4056 31.604 16.194 31.249 18 31.25ZM13 45C13 42.925 11.875 41.25 10.5 41.25C9.125 41.25 8 42.925 8 45C8 47.075 9.125 48.75 10.5 48.75C11.875 48.75 13 47.075 13 45Z" fill="#7E6DD4"/>
<path d="M4.25 45C4.25 47.7195 5.05643 50.3779 6.56729 52.6391C8.07816 54.9003 10.2256 56.6626 12.7381 57.7033C15.2506 58.744 18.0153 59.0163 20.6825 58.4858C23.3497 57.9553 25.7997 56.6457 27.7227 54.7227C29.6457 52.7997 30.9553 50.3497 31.4858 47.6825C32.0163 45.0153 31.744 42.2506 30.7033 39.7381C29.6626 37.2256 27.9003 35.0782 25.6391 33.5673C23.3779 32.0564 20.7195 31.25 18 31.25C16.194 31.249 14.4056 31.604 12.7369 32.2946C11.0683 32.9853 9.55209 33.9981 8.27509 35.2751C6.99808 36.5521 5.9853 38.0683 5.29465 39.7369C4.604 41.4056 4.24902 43.194 4.25 45ZM25.5 45C25.5 51.9088 21.0275 57.5 15.5 57.5C9.9725 57.5 5.5 51.9088 5.5 45C5.5 38.0913 9.9725 32.5 15.5 32.5C21.0275 32.5 25.5 38.0913 25.5 45Z" fill="#5F4A9E"/>
<path d="M11.125 53.75C14.2316 53.75 16.75 49.8325 16.75 45C16.75 40.1675 14.2316 36.25 11.125 36.25C8.0184 36.25 5.5 40.1675 5.5 45C5.5 49.8325 8.0184 53.75 11.125 53.75Z" fill="#9883FF"/>
<path d="M10.5 50C12.5711 50 14.25 47.7614 14.25 45C14.25 42.2386 12.5711 40 10.5 40C8.42893 40 6.75 42.2386 6.75 45C6.75 47.7614 8.42893 50 10.5 50Z" fill="#5F4A9E"/>
<path d="M10.5 48.75C11.8807 48.75 13 47.0711 13 45C13 42.9289 11.8807 41.25 10.5 41.25C9.11929 41.25 8 42.9289 8 45C8 47.0711 9.11929 48.75 10.5 48.75Z" fill="#39285E"/>
<path d="M9.25 45C9.18446 44.2811 9.32623 43.5585 9.65851 42.9176C9.99079 42.2767 10.4997 41.7445 11.125 41.3837C10.9269 41.3003 10.7149 41.2549 10.5 41.25C9.125 41.25 8 42.925 8 45C8 47.075 9.125 48.75 10.5 48.75C10.7149 48.7451 10.9269 48.6997 11.125 48.6163C10.4997 48.2555 9.99079 47.7233 9.65851 47.0824C9.32623 46.4415 9.18446 45.7189 9.25 45Z" fill="#261647"/>
<path d="M14 35.5088C14.0133 35.5987 14.0394 35.6863 14.0775 35.7688C14.3913 36.4638 15.335 36.8738 15.8775 37.3675C17.3785 38.7263 18.4401 40.5021 18.9263 42.4675C18.9439 42.6844 19.0064 42.8952 19.1097 43.0867C19.2129 43.2781 19.3548 43.4461 19.5263 43.58C19.7238 43.6628 19.943 43.6786 20.1505 43.6252C20.3579 43.5717 20.5421 43.4518 20.675 43.2838C20.9296 42.942 21.0957 42.5427 21.1588 42.1213C21.5973 40.5505 21.6007 38.8901 21.1688 37.3175C20.9024 36.5638 20.4843 35.8726 19.9404 35.2868C19.3965 34.7009 18.7382 34.2328 18.0063 33.9113C17.5375 33.7106 17.0245 33.6356 16.5179 33.6937C16.0113 33.7517 15.5287 33.9409 15.1175 34.2425C14.6063 34.5613 13.9263 34.9075 14 35.5088Z" fill="#9883FF"/>
<path d="M31.75 23.6325C32.1475 23.7125 32.375 23.75 32.375 23.75L32.4088 23.7288C32.6213 23.4713 32.8512 23.2287 33.0825 22.9875C33.9802 21.3453 34.3856 19.4791 34.25 17.6125C34.25 17.6125 34.25 4.3125 21.125 1.25C20.0697 4.07592 19.4787 7.054 19.375 10.0688C22.7475 10.4051 25.8767 11.9761 28.161 14.4799C30.4453 16.9836 31.7236 20.2434 31.75 23.6325Z" fill="#4E8C00"/>
<path d="M43 18.75C46.5678 18.7479 49.9955 20.1382 52.5538 22.625C53.4633 21.8274 54.1954 20.848 54.7029 19.7499C55.2103 18.6518 55.4819 17.4595 55.5 16.25C55.5 6.25 53 1.25 53 1.25C48.8105 6.72853 45.1681 12.6045 42.125 18.7938C42.415 18.7763 42.705 18.75 43 18.75Z" fill="#63B300"/>
<path d="M53 1.25C36.8175 4.7175 35.6 18.8638 35.5087 20.9763C37.4885 19.6893 39.768 18.9374 42.125 18.7938C45.168 12.6045 48.8104 6.72853 53 1.25Z" fill="#4E8C00"/>
<path d="M44.7188 13.875C43.8438 15.4225 42.9688 17.0662 42.125 18.8C42.415 18.7825 42.705 18.7562 43 18.7562C46.5678 18.7542 49.9955 20.1444 52.5538 22.6312C53.3491 21.8832 54.02 21.0131 54.5413 20.0537C53.4541 18.3695 52.0114 16.9436 50.3145 15.8762C48.6176 14.8088 46.7077 14.1258 44.7188 13.875Z" fill="#4E8C00"/>
<path d="M42.125 18.7938C42.975 17.06 43.85 15.4188 44.7187 13.8688C44.1488 13.7937 43.5748 13.7541 43 13.75C40.7717 13.7489 38.5768 14.2921 36.6062 15.3325C35.992 17.1568 35.6229 19.0547 35.5087 20.9763C37.4885 19.6893 39.768 18.9374 42.125 18.7938Z" fill="#3F7000"/>
<path d="M20 5.26501C19.692 6.85171 19.4833 8.45608 19.375 10.0688C22.7475 10.4051 25.8767 11.9761 28.161 14.4799C30.4453 16.9836 31.7236 20.2434 31.75 23.6325C32.1475 23.7125 32.375 23.75 32.375 23.75L32.4088 23.7288C32.6213 23.4713 32.8512 23.2288 33.0825 22.9875C33.9802 21.3453 34.3856 19.4792 34.25 17.6125C34.1944 16.0801 33.9466 14.5607 33.5125 13.09C30.203 8.81723 25.3532 6.00874 20 5.26501Z" fill="#3F7000"/>
<path d="M52.5283 27.0516C53.3338 26.2462 53.0777 24.6842 51.9564 23.5629C50.8351 22.4416 49.2732 22.1856 48.4677 22.9911C47.6623 23.7965 47.9183 25.3585 49.0396 26.4797C50.1609 27.601 51.7229 27.8571 52.5283 27.0516Z" fill="#F6FAFD"/>
<path d="M17.5195 39.5404C18.325 38.7349 18.069 37.173 16.9477 36.0517C15.8264 34.9304 14.2644 34.6744 13.459 35.4798C12.6535 36.2853 12.9096 37.8472 14.0309 38.9685C15.1522 40.0898 16.7141 40.3458 17.5195 39.5404Z" fill="#F6FAFD"/>
<path d="M36.2746 34.5466C37.08 33.7412 36.824 32.1792 35.7027 31.0579C34.5814 29.9366 33.0194 29.6806 32.214 30.4861C31.4085 31.2915 31.6646 32.8534 32.7859 33.9747C33.9072 35.096 35.4691 35.3521 36.2746 34.5466Z" fill="#C4B0FF"/>
<path d="M51.5112 31.0359C51.9139 30.6332 51.7861 29.8524 51.2257 29.292C50.6653 28.7316 49.8845 28.6038 49.4818 29.0065C49.0791 29.4092 49.2069 30.19 49.7673 30.7504C50.3277 31.3108 51.1085 31.4386 51.5112 31.0359Z" fill="#F6FAFD"/>
<path d="M26.5112 19.776C26.9139 19.3733 26.7861 18.5925 26.2257 18.0321C25.6653 17.4717 24.8845 17.3439 24.4818 17.7466C24.0791 18.1494 24.2069 18.9301 24.7673 19.4905C25.3277 20.0509 26.1085 20.1788 26.5112 19.776Z" fill="#F6FAFD"/>
<path d="M25.6874 16.1437C25.889 15.9421 25.8253 15.5515 25.5451 15.2713C25.2649 14.9911 24.8743 14.9274 24.6727 15.129C24.4711 15.3306 24.5348 15.7212 24.815 16.0014C25.0952 16.2816 25.4858 16.3453 25.6874 16.1437Z" fill="#F6FAFD"/>
<path d="M57.75 29.7737L55.2912 30.2262C55.4291 30.9763 55.4989 31.7373 55.5 32.5C55.5023 34.503 55.0232 36.4772 54.1031 38.2564C53.183 40.0356 51.8488 41.5676 50.2128 42.7234C48.5769 43.8792 46.6872 44.625 44.7028 44.8978C42.7185 45.1707 40.6976 44.9627 38.8104 44.2913C36.9233 43.62 35.2251 42.505 33.8589 41.0402C32.4927 39.5754 31.4985 37.8037 30.9601 35.8744C30.4216 33.9451 30.3547 31.9147 30.765 29.9541C31.1753 27.9935 32.0507 26.1603 33.3175 24.6087C33.5985 24.3704 33.8457 24.0949 34.0525 23.79C35.509 22.2892 37.3192 21.1783 39.3169 20.5593C41.3146 19.9403 43.4357 19.833 45.4857 20.2472C47.5356 20.6614 49.4487 21.5839 51.0492 22.93C52.6498 24.2761 53.8867 26.0027 54.6462 27.9512L56.9762 27.0412C56.3419 25.4224 55.4332 23.925 54.29 22.615C55.867 20.8694 56.7431 18.6024 56.75 16.25C56.75 6.07122 54.225 0.906219 54.125 0.691219C54.0008 0.44175 53.7968 0.240935 53.5454 0.120676C53.294 0.000416946 53.0097 -0.0323893 52.7375 0.0274688C41.3312 2.47247 36.9625 10.0637 35.2887 15.4675C34.6462 11.3487 32.0387 2.51622 21.4137 0.0324688C21.1329 -0.0332816 20.8379 0.000124594 20.5789 0.127023C20.3199 0.253921 20.1127 0.466502 19.9925 0.728719C19.0135 3.30488 18.4237 6.01251 18.2425 8.76247C18.1637 8.76247 18.0862 8.74997 18.0075 8.74997C15.2607 8.74902 12.5664 9.50229 10.2185 10.9276C7.87046 12.353 5.95893 14.3957 4.69231 16.833C3.4257 19.2703 2.85263 22.0086 3.03562 24.7492C3.2186 27.4899 4.15061 30.1277 5.72999 32.375L7.77249 30.935C6.64312 29.3277 5.90843 27.4769 5.62801 25.5327C5.3476 23.5885 5.52934 21.6055 6.15851 19.7446C6.78769 17.8838 7.84657 16.1974 9.24929 14.8222C10.652 13.447 12.3591 12.4218 14.2321 11.8297C16.1051 11.2376 18.0913 11.0952 20.0296 11.4142C21.9678 11.7331 23.8037 12.5044 25.3882 13.6654C26.9727 14.8265 28.2613 16.3446 29.1494 18.0967C30.0376 19.8488 30.5003 21.7856 30.5 23.75C30.5 23.9237 30.4837 24.0925 30.4762 24.2637C28.8595 26.7062 27.9983 29.5709 28 32.5C28 32.9787 28.0275 33.45 28.0712 33.9162C25.5248 31.6123 22.2641 30.2533 18.8351 30.067C15.4062 29.8807 12.0174 30.8783 9.23635 32.8928C6.4553 34.9072 4.45094 37.8162 3.55903 41.1323C2.66711 44.4485 2.94181 47.9704 4.33711 51.1081C5.73241 54.2459 8.16356 56.8088 11.2233 58.3677C14.2831 59.9266 17.7856 60.3868 21.1442 59.671C24.5027 58.9553 27.5134 57.1072 29.6717 54.4363C31.8301 51.7654 33.0051 48.434 33 45C33 44.5212 32.9725 44.05 32.9287 43.5837C35.0746 45.5434 37.7444 46.8363 40.6124 47.3048C43.4805 47.7733 46.4228 47.3971 49.0807 46.222C51.7387 45.047 53.9972 43.1239 55.581 40.6874C57.1647 38.2508 58.0052 35.406 58 32.5C57.9995 31.5855 57.9158 30.673 57.75 29.7737ZM54.25 16.25C54.2455 17.9512 53.6201 19.5923 52.4912 20.865C50.1185 18.9273 47.2065 17.7676 44.1512 17.5437C46.6332 12.771 49.4656 8.18889 52.625 3.83497C53.7769 7.87033 54.3245 12.0541 54.25 16.25ZM49.7987 3.46497C46.6253 7.95873 43.7924 12.6836 41.3237 17.6C39.8349 17.7663 38.3797 18.1565 37.0075 18.7575C37.5437 15.2848 39.0186 12.0248 41.273 9.32953C43.5274 6.63429 46.4755 4.60639 49.7987 3.46497ZM20.7125 9.00872C20.8934 6.88677 21.2939 4.7893 21.9075 2.74997C32.825 5.98122 33 17.125 33 17.6137C33.017 18.6461 32.9104 19.6767 32.6825 20.6837C32.0677 17.7711 30.6019 15.1065 28.4709 13.028C26.3398 10.9495 23.6396 9.55061 20.7125 9.00872ZM18 57.5C15.5277 57.5 13.111 56.7669 11.0554 55.3933C8.99975 54.0198 7.39759 52.0676 6.4515 49.7835C5.5054 47.4994 5.25786 44.9861 5.74018 42.5613C6.22249 40.1366 7.413 37.9093 9.16116 36.1611C10.9093 34.413 13.1366 33.2225 15.5614 32.7402C17.9861 32.2578 20.4995 32.5054 22.7835 33.4515C25.0676 34.3976 27.0198 35.9997 28.3934 38.0553C29.7669 40.111 30.5 42.5277 30.5 45C30.4964 48.3141 29.1782 51.4914 26.8348 53.8348C24.4914 56.1782 21.3141 57.4963 18 57.5Z" fill="#001A1F"/>
<path d="M10.5 40C8.39625 40 6.75 42.1962 6.75 45C6.75 47.8038 8.39625 50 10.5 50C12.6037 50 14.25 47.8038 14.25 45C14.25 42.1962 12.6037 40 10.5 40ZM10.5 47.5C9.99 47.5 9.25 46.5262 9.25 45C9.25 43.4738 9.99 42.5 10.5 42.5C11.01 42.5 11.75 43.4738 11.75 45C11.75 46.5262 11.01 47.5 10.5 47.5Z" fill="#001A1F"/>
<path d="M23 17.5C23 15.3963 20.8038 13.75 18 13.75C15.1962 13.75 13 15.3963 13 17.5C13 19.6037 15.1962 21.25 18 21.25C20.8038 21.25 23 19.6037 23 17.5ZM15.5 17.5C15.5 16.99 16.4738 16.25 18 16.25C19.5262 16.25 20.5 16.99 20.5 17.5C20.5 18.01 19.5262 18.75 18 18.75C16.4738 18.75 15.5 18.01 15.5 17.5Z" fill="#001A1F"/>
<path d="M38 26.25C38 28.3537 40.1962 30 43 30C45.8038 30 48 28.3537 48 26.25C48 24.1463 45.8038 22.5 43 22.5C40.1962 22.5 38 24.1463 38 26.25ZM45.5 26.25C45.5 26.76 44.5262 27.5 43 27.5C41.4738 27.5 40.5 26.76 40.5 26.25C40.5 25.74 41.4738 25 43 25C44.5262 25 45.5 25.74 45.5 26.25Z" fill="#001A1F"/>
</g>
<defs>
<clipPath id="clip0_7_1426">
<rect width="60" height="60" fill="white" transform="translate(0.5)"/>
</clipPath>
</defs>
</svg>
