<svg width="61" height="60" viewBox="0 0 61 60" fill="none" xmlns="http://www.w3.org/2000/svg">
<mask id="mask0_7_1255" style="mask-type:luminance" maskUnits="userSpaceOnUse" x="0" y="0" width="61" height="60">
<path d="M0.5 3.8147e-06H60.5V60H0.5V3.8147e-06Z" fill="white"/>
</mask>
<g mask="url(#mask0_7_1255)">
<path fill-rule="evenodd" clip-rule="evenodd" d="M27.7062 57.1979C28.0412 55.5472 29.7392 50.7676 38.1604 50.9681C38.1604 50.9681 39.1827 41.7845 44.604 39.4328C44.3523 38.7236 44.2147 37.96 44.2147 37.1643C44.2147 33.671 46.8561 30.7948 50.2505 30.4239C50.4952 30.3972 50.7438 30.3834 50.9955 30.3834C52.2775 30.3834 53.4762 30.7391 54.4987 31.3573C56.4632 32.5449 57.7764 34.7011 57.7764 37.1643C57.7764 40.8349 54.8596 43.8239 51.2175 43.9411C50.0158 53.3514 42.345 61.9075 27.6259 57.7488C27.6259 57.7488 27.6366 57.5409 27.7062 57.1979Z" fill="#73CA5B"/>
<path fill-rule="evenodd" clip-rule="evenodd" d="M18.9292 43.2744C25.9988 48.6751 27.6259 57.7489 27.6259 57.7489C14.9866 57.7489 4.74048 47.1233 4.74048 34.016C4.74048 30.7985 5.35923 27.7312 6.47778 24.9332C6.44532 25.1754 4.97392 36.5466 15.154 41.0391C16.5585 41.6588 17.8118 42.4208 18.9292 43.2744Z" fill="#A6F074"/>
<path fill-rule="evenodd" clip-rule="evenodd" d="M16.607 32.8052C20.9661 35.227 18.9291 43.2743 18.9291 43.2743C17.8117 42.4207 16.5584 41.6587 15.154 41.0391C4.9738 36.5466 6.44521 25.1753 6.47767 24.9332L6.47661 24.9325C0.513998 20.9249 3.88349 15.8771 7.57314 16.1332L7.57302 16.1343C8.68536 16.2114 9.82677 16.7698 10.7503 17.9848L10.751 17.9855L10.7517 17.9862C12.7804 19.9905 12.7323 23.3605 12.7323 23.3605C16.7891 26.0152 16.607 32.8052 16.607 32.8052Z" fill="#73CA5B"/>
<path fill-rule="evenodd" clip-rule="evenodd" d="M50.2467 30.398C48.6559 19.6125 40.0642 11.2168 29.4323 10.3559C29.4323 10.3559 32.0166 5.87113 38.7183 7.63445L38.7194 7.63328C40.1711 8.01554 41.8162 8.69102 43.6699 9.76879C43.6699 9.76879 49.2399 7.34711 51.4194 13.2803C58.561 13.9013 59.4696 21.5767 55.0521 25.9943C55.0521 25.9943 56.3671 28.0019 54.4987 31.3573C53.4763 30.739 52.2775 30.3834 50.9956 30.3834C50.7437 30.3834 50.4952 30.3975 50.2506 30.4244C50.2492 30.4155 50.248 30.4067 50.2467 30.398Z" fill="#A6F074"/>
<path fill-rule="evenodd" clip-rule="evenodd" d="M50.2467 30.398C50.248 30.4067 50.2492 30.4155 50.2505 30.4239C46.856 30.7948 44.2146 33.6711 44.2146 37.1642C44.2146 37.9599 44.3522 38.7235 44.604 39.4328C39.1826 41.7844 38.1603 50.9681 38.1603 50.9681C29.7391 50.7676 28.0412 55.5472 27.7062 57.1979C27.6367 57.5409 27.6259 57.7489 27.6259 57.7489C27.6259 57.7489 25.9987 48.6751 18.9292 43.2744C18.9292 43.2744 20.9662 35.2271 16.607 32.8053C16.607 32.8053 16.7891 26.0152 12.7323 23.3606C12.7323 23.3606 12.7803 19.9906 10.7518 17.9862C14.9353 13.2521 20.9457 10.283 27.6259 10.283C28.2339 10.283 28.8361 10.3086 29.4321 10.3573C40.0638 11.2184 48.6559 19.6127 50.2467 30.398Z" fill="#DCFFB6"/>
<path fill-rule="evenodd" clip-rule="evenodd" d="M38.7193 7.63328C38.7193 7.63328 37.1312 1.17156 29.6239 1.17156C22.1167 1.17156 21.148 6.49937 21.148 6.49937C21.148 6.49937 8.75519 5.18277 7.57324 16.1332L7.57312 16.1343C8.68546 16.2114 9.82675 16.7698 10.7504 17.9848L10.7518 17.9862C14.9353 13.2521 20.9457 10.2829 27.6259 10.2829C28.2339 10.2829 28.8361 10.3086 29.4321 10.3573L29.4322 10.3558C29.4322 10.3558 32.0166 5.87113 38.7183 7.63445L38.7193 7.63328Z" fill="#73CA5B"/>
<path d="M29.4322 10.3559C29.4322 10.3559 33.2564 3.71454 43.6699 9.76879C43.6699 9.76879 49.2399 7.34711 51.4194 13.2803C58.561 13.9013 59.4696 21.5767 55.0521 25.9943C55.0521 25.9943 56.3671 28.0019 54.4987 31.3573L54.4985 31.3574C53.4762 30.7393 52.2775 30.3834 50.9956 30.3834C50.7437 30.3834 50.4952 30.3975 50.2506 30.4244C48.6699 19.6263 40.0725 11.2191 29.4321 10.3574L29.4322 10.3559Z" stroke="black" stroke-width="2.46094" stroke-miterlimit="2.613" stroke-linecap="round" stroke-linejoin="round"/>
<path d="M9.59931 48.6386C13.7883 54.1846 20.3058 57.7488 27.6259 57.7488C27.6259 57.7488 27.9892 50.726 38.1605 50.9681C38.1605 50.9681 39.1826 41.7844 44.604 39.4327C44.3523 38.7235 44.2147 37.9599 44.2147 37.1642C44.2147 33.6711 46.8563 30.7953 50.2507 30.4243C48.5817 19.0245 39.024 10.1355 27.335 10.2849M7.6997 45.6967C7.70942 45.7144 7.71915 45.7321 7.72876 45.7498M6.47778 24.9332C5.35923 27.7312 4.74048 30.7985 4.74048 34.016C4.74048 36.5201 5.11466 38.9339 5.80782 41.1999M19.2395 11.9273C15.9769 13.2607 13.0806 15.3496 10.7511 17.9855M22.4045 10.9035C22.3992 10.9048 22.394 10.9062 22.3887 10.9074" stroke="black" stroke-width="2.46094" stroke-miterlimit="2.613" stroke-linecap="round" stroke-linejoin="round"/>
<path d="M35.1939 20.3033C35.1939 20.3033 21.6713 27.7371 27.7061 57.1979" stroke="black" stroke-width="2.46094" stroke-miterlimit="2.613" stroke-linecap="round" stroke-linejoin="round"/>
<path d="M27.6258 57.7488C27.6258 57.7488 25.4437 45.5799 15.1539 41.039C4.97385 36.5465 6.44526 25.1752 6.47772 24.9332" stroke="black" stroke-width="2.46094" stroke-miterlimit="2.613" stroke-linecap="round" stroke-linejoin="round"/>
<path d="M50.9955 30.3833C47.2505 30.3833 44.2147 33.4192 44.2147 37.1642C44.2147 37.9599 44.3523 38.7235 44.604 39.4328C39.1825 41.7844 38.1604 50.968 38.1604 50.968C27.9891 50.7259 27.6259 57.7488 27.6259 57.7488C42.345 61.9075 50.0158 53.3513 51.2175 43.941C54.8596 43.8238 57.7763 40.8349 57.7763 37.1642C57.7763 33.4192 54.7405 30.3833 50.9955 30.3833Z" stroke="black" stroke-width="2.46094" stroke-miterlimit="2.613" stroke-linecap="round" stroke-linejoin="round"/>
<path d="M16.607 32.8052C20.9662 35.227 18.9291 43.2743 18.9291 43.2743C17.8239 42.43 16.5855 41.6753 15.1996 41.0593L15.154 41.0391C4.97384 36.5466 6.44525 25.1753 6.47771 24.9332C6.47771 24.9332 6.47747 24.9329 6.47665 24.9325C-1.2835 19.7168 6.76306 12.7392 10.7504 17.9848C12.7805 19.9891 12.7324 23.3605 12.7324 23.3605C16.7892 26.0152 16.607 32.8052 16.607 32.8052Z" stroke="black" stroke-width="2.46094" stroke-miterlimit="2.613" stroke-linecap="round" stroke-linejoin="round"/>
<path d="M38.7183 7.63445L38.7193 7.63328C38.7193 7.63328 37.1312 1.17168 29.6239 1.17168C22.1167 1.17168 21.1479 6.49937 21.1479 6.49937C21.1479 6.49937 8.75507 5.18277 7.57324 16.1332L7.57312 16.1343C8.68546 16.2114 9.82675 16.7698 10.7504 17.9848L10.7518 17.9862" stroke="black" stroke-width="2.46094" stroke-miterlimit="2.613" stroke-linecap="round" stroke-linejoin="round"/>
<path d="M29.1992 27.6772C31.6209 25.2858 37.665 24.0837 41.4185 27.1411" stroke="black" stroke-width="2.46094" stroke-miterlimit="2.613" stroke-linecap="round" stroke-linejoin="round"/>
<path d="M27.1175 33.8267C27.1175 33.8267 24.2299 24.2794 19.5076 23.1292" stroke="black" stroke-width="2.46094" stroke-miterlimit="2.613" stroke-linecap="round" stroke-linejoin="round"/>
<path d="M32.413 38.6728C29.9553 38.6688 26.8761 39.6186 26.1581 42.6382M35.4484 39.4313C35.4346 39.4181 35.4203 39.4052 35.4052 39.3924" stroke="black" stroke-width="2.46094" stroke-miterlimit="2.613" stroke-linecap="round" stroke-linejoin="round"/>
<path d="M21.1479 6.4995L22.3788 7.47766" stroke="black" stroke-width="2.46094" stroke-miterlimit="2.613" stroke-linecap="round" stroke-linejoin="round"/>
<path d="M38.1604 50.9681C39.953 50.9506 41.2992 51.3234 42.1543 52.1261" stroke="black" stroke-width="2.46094" stroke-miterlimit="2.613" stroke-linecap="round" stroke-linejoin="round"/>
<path d="M12.7324 23.3606C12.7324 23.3606 11.8981 26.1765 12.2497 29.6042" stroke="black" stroke-width="2.46094" stroke-miterlimit="2.613" stroke-linecap="round" stroke-linejoin="round"/>
<path d="M51.4194 13.2802C51.4194 13.2802 49.0614 13.2454 47.6927 14.5481" stroke="black" stroke-width="2.46094" stroke-miterlimit="2.613" stroke-linecap="round" stroke-linejoin="round"/>
<path d="M51.2174 43.941C51.2174 43.941 51.4303 40.3358 51.9577 39.369" stroke="black" stroke-width="2.46094" stroke-miterlimit="2.613" stroke-linecap="round" stroke-linejoin="round"/>
</g>
</svg>
