<svg width="61" height="60" viewBox="0 0 61 60" fill="none" xmlns="http://www.w3.org/2000/svg">
<g clip-path="url(#clip0_7_1249)">
<path d="M58.5987 15.0072C57.5911 13.4351 55.9195 12.7052 54.2957 12.8164C56.4422 11.0315 56.5546 7.82822 54.6202 5.89381C52.6851 3.95869 49.482 4.07272 47.6976 6.2183C47.8089 4.59455 47.0791 2.92276 45.5068 1.91529C42.4852 -0.0243931 38.4228 2.14088 38.3382 5.78483C38.2812 8.21694 37.336 11.6853 36.2177 16.0932V16.0944C37.902 17.0089 39.47 18.3471 40.8183 19.6957C42.1746 21.0519 43.505 22.6122 44.4208 24.2963C49.383 23.0373 52.4291 22.2297 54.7292 22.1758C58.3625 22.0913 60.5432 18.0362 58.5987 15.0072Z" fill="#85E374"/>
<path d="M39.8307 37.0883C26.1601 46.3786 5.56451 61.782 2.14826 58.3658C-1.26799 54.9496 14.1354 34.3552 23.4269 20.6834C28.5638 13.1248 34.243 13.1204 40.8184 19.6957C47.3567 26.2341 47.4314 31.9228 39.8307 37.0883Z" fill="#FEA832"/>
<path d="M34.8646 27.3072C35.3215 26.8491 35.3215 26.1075 34.8646 25.6494C34.4065 25.1925 33.6649 25.1925 33.2068 25.6494C32.7499 26.1075 32.7499 26.8491 33.2068 27.3072C33.6649 27.7641 34.4066 27.7641 34.8646 27.3072Z" fill="black"/>
<path d="M19.9533 42.2186C20.4102 41.7605 20.4102 41.0189 19.9533 40.5608C19.4952 40.1039 18.7537 40.1039 18.2956 40.5608C17.8387 41.0189 17.8387 41.7605 18.2956 42.2186C18.7537 42.6755 19.4952 42.6755 19.9533 42.2186Z" fill="black"/>
<path d="M40.4893 38.0572C45.2793 34.8018 48.2526 30.506 46.087 25.0874C49.1164 24.3285 52.5131 23.3995 54.7564 23.347C59.3036 23.2415 62.0247 18.1756 59.5851 14.375C58.829 13.1951 57.7419 12.354 56.4929 11.9353C57.6455 9.75001 57.3277 6.9443 55.4487 5.06532C53.5925 3.2093 50.7902 2.86161 48.5796 4.0227C48.1611 2.7729 47.3198 1.68575 46.1398 0.929537C42.3461 -1.50597 37.2729 1.20317 37.167 5.75754C37.1133 8.04809 36.1533 11.5268 35.4264 14.428C30.0072 12.2618 25.7117 15.2371 22.458 20.0249C17.1249 27.8718 9.60404 38.2452 4.95732 46.1432C0.624552 53.5079 -0.463417 57.4109 1.31971 59.1942C5.49346 63.368 22.5602 50.2418 40.4893 38.0572ZM57.6128 15.6401C59.0532 17.8841 57.4438 20.9409 54.7015 21.0048C52.0566 21.0668 48.4821 22.0717 44.9887 22.9468C44.4952 22.1557 43.9027 21.3575 43.2003 20.5383C55.0978 13.7827 54.2671 14.2897 54.7021 13.9794C55.881 14.0046 56.9518 14.6087 57.6128 15.6401ZM53.7918 6.72223C55.4503 8.38067 55.0468 11.181 52.9761 12.3018C52.9694 12.3054 52.963 12.3091 52.9563 12.3128L41.974 18.5399L48.2013 7.55766C48.2049 7.5511 48.2085 7.54465 48.2122 7.53809C49.3403 5.4559 52.1425 5.07282 53.7918 6.72223ZM39.5094 5.81215C39.5733 3.06317 42.6393 1.46661 44.8748 2.90169C45.9055 3.56215 46.509 4.63337 46.5347 5.81204C46.221 6.25196 46.7087 5.45684 39.9758 17.314C39.1551 16.6106 38.3569 16.0181 37.5672 15.5258C38.5359 11.6582 39.4497 8.36251 39.5094 5.81215ZM3.36147 54.5489C3.99662 52.7575 5.21315 50.3291 6.97693 47.3312C7.72846 46.0538 8.56061 44.7047 9.44771 43.3103L11.6692 45.5317C12.1269 45.9892 12.8684 45.9892 13.3262 45.5317C13.7837 45.0742 13.7837 44.3324 13.3262 43.8749L10.7466 41.2955C12.8476 38.0749 15.1694 34.6848 17.4336 31.4142L21.6096 35.5911C22.0669 36.0485 22.8087 36.049 23.2665 35.5913C23.724 35.1338 23.7241 34.3921 23.2667 33.9345L18.7907 29.4574C20.6853 26.7293 22.6716 23.879 24.3959 21.3418C24.8065 20.7375 25.2125 20.1977 25.6135 19.7138L29.8938 23.9931C30.3514 24.4505 31.093 24.4506 31.5507 23.993C32.0081 23.5354 32.0079 22.7937 31.5504 22.3362L27.2398 18.0266C31.6126 14.219 35.8743 16.4085 39.9901 20.5242C46.1428 26.6748 46.0089 31.4732 39.1724 36.1195C38.441 36.6166 37.6918 37.1299 36.9283 37.6556L33.2074 33.9347C32.7497 33.4772 32.0082 33.4772 31.5504 33.9347C31.0929 34.3922 31.0929 35.134 31.5504 35.5916L34.9683 39.0095C31.7796 41.2185 28.5126 43.5041 25.1743 45.7827L23.2669 43.8754C22.8094 43.4179 22.0679 43.4179 21.61 43.8754C21.1525 44.3329 21.1525 45.0747 21.61 45.5322L23.2006 47.1227C18.951 49.9908 10.775 55.4476 5.96572 57.1529C3.50397 58.0259 2.99736 57.5581 2.97697 57.5379C2.95623 57.517 2.48842 57.0109 3.36147 54.5489Z" fill="black"/>
</g>
<defs>
<clipPath id="clip0_7_1249">
<rect width="60" height="60" fill="white" transform="translate(0.5)"/>
</clipPath>
</defs>
</svg>
