<svg width="61" height="60" viewBox="0 0 61 60" fill="none" xmlns="http://www.w3.org/2000/svg">
<g clip-path="url(#clip0_7_1304)">
<path d="M54.2 27.9201L54.19 27.9501C51.66 43.6601 34.03 59.0001 23.13 59.0001C12.34 59.0001 4.5 52.4201 4.5 42.0801C4.5 31.7401 12.4 26.4001 18.23 25.1601C27.05 23.2801 30.43 21.7101 33.91 16.7001C34.4505 15.9323 35.1047 15.2511 35.85 14.6801C36.38 16.5401 43.99 14.3601 46.55 15.0001C54.21 16.9001 51.85 26.9501 54.2 27.9201Z" fill="#9D27B0"/>
<path d="M36.859 15.3511C36.319 15.2441 35.952 15.0381 35.85 14.6801C35.55 14.9188 35.2641 15.1749 34.994 15.4471C35.553 15.4511 36.189 15.4111 36.859 15.3511Z" fill="#6A1B9A"/>
<path d="M46.55 15C45.5181 14.8416 44.4687 14.8352 43.435 14.981C43.471 14.989 43.516 14.991 43.55 15C51.21 16.9 48.85 26.95 51.2 27.92L51.19 27.95C48.753 43.082 32.31 57.864 21.363 58.932C21.943 58.972 22.53 59 23.13 59C34.03 59 51.66 43.66 54.19 27.95L54.2 27.92C51.85 26.95 54.21 16.9 46.55 15Z" fill="#6A1B9A"/>
<path d="M54.6 28C54.4626 28.0006 54.3266 27.9734 54.2 27.92C51.85 26.95 54.21 16.9 46.55 15C43.99 14.36 36.38 16.54 35.85 14.68C35.75 14.31 35.93 13.76 36.5 13C39.49 9 45.55 10 48.56 10C51.57 10 48.56 3 48.56 3C49.57 1 52.59 1 52.59 1C56.61 7 52.59 10 54.6 13C56.61 16 57.61 28 54.6 28Z" fill="#60A917"/>
<path d="M54.6 13C52.59 10 56.61 7 52.59 1C51.6832 1.02364 50.7919 1.23975 49.975 1.634C53.3 7.21 49.663 10.109 51.6 13C53.1 15.246 54.043 22.535 53.157 26.058C53.377 27.011 53.667 27.7 54.2 27.92C54.3266 27.9734 54.4626 28.0006 54.6 28C57.61 28 56.61 16 54.6 13Z" fill="#549414"/>
<path d="M8.5 41C7.94772 41 7.5 40.5523 7.5 40C7.5 37.437 9.949 31.118 17.225 29.039C17.5721 28.9286 17.9518 29.0157 18.2161 29.2663C18.4804 29.5169 18.5876 29.8914 18.4959 30.2439C18.4041 30.5963 18.128 30.8711 17.775 30.961C10.973 32.905 9.5 38.676 9.5 40C9.5 40.5523 9.05228 41 8.5 41Z" fill="#F5F5F5"/>
<path d="M8.5 45C9.05228 45 9.5 44.5523 9.5 44C9.5 43.4477 9.05228 43 8.5 43C7.94772 43 7.5 43.4477 7.5 44C7.5 44.5523 7.94772 45 8.5 45Z" fill="#F5F5F5"/>
<path d="M23.1301 60C34.4301 60 51.9441 44.78 55.0171 28.955C55.7383 28.7808 56.339 28.2838 56.6451 27.608C58.3171 24.473 57.3041 15.243 55.4281 12.443C54.8431 11.571 54.9501 10.694 55.1891 9.219C55.9009 6.17514 55.2542 2.9722 53.4171 0.443C53.2313 0.165986 52.9197 -0.000162461 52.5861 1.19206e-07C52.4381 1.19206e-07 48.9381 0.029 47.6711 2.551C47.5383 2.81512 47.5291 3.12449 47.6461 3.396C48.5381 5.471 49.2201 8.259 48.7711 8.94C48.7551 8.964 48.7311 9 48.5641 9C48.1211 9 47.6091 8.978 47.0511 8.953C43.6681 8.8 38.5581 8.583 35.7001 12.4C35.2715 12.9245 34.9794 13.5471 34.8501 14.212C34.1824 14.7718 33.5904 15.4162 33.0891 16.129C29.9171 20.695 26.9591 22.275 18.0221 24.181C9.54101 25.9349 3.46857 33.4195 3.50012 42.08C3.50012 52.631 11.5721 60 23.1301 60ZM37.3001 13.6C39.5261 10.627 43.8251 10.815 46.9641 10.951C47.5551 10.977 48.0951 11 48.5641 11C49.314 11.0274 50.0245 10.664 50.4411 10.04C51.5661 8.33 50.3481 4.74 49.6881 3.1C50.336 2.48425 51.1768 2.11151 52.0681 2.045C53.3824 4.07287 53.798 6.55457 53.2161 8.9C52.9691 10.419 52.7161 11.988 53.7661 13.559C55.2421 15.759 56.1811 24.232 54.8801 26.669C54.7641 26.887 54.6491 27.002 54.5801 27.004C54.2461 26.796 53.9801 25.17 53.8031 24.094C53.2351 20.64 52.3771 15.421 46.7891 14.032C46.284 13.9207 45.7673 13.87 45.2501 13.881C44.0229 13.9144 42.7983 14.0112 41.5811 14.171C40.0651 14.341 37.5951 14.617 36.8541 14.338C36.9684 14.0728 37.1184 13.8245 37.3001 13.6ZM18.4381 26.138C27.2171 24.267 30.9981 22.646 34.7321 17.27C35.0549 16.8219 35.4236 16.4086 35.8321 16.037C37.0511 16.675 39.2061 16.447 41.8101 16.157C43.2963 15.906 44.8082 15.8431 46.3101 15.97C50.6201 17.042 51.2921 21.131 51.8321 24.417C52.0911 25.998 52.3541 27.503 53.0971 28.334C50.3661 43.143 33.5441 58 23.1301 58C12.5851 58 5.50012 51.6 5.50012 42.08C5.50012 31.646 13.9631 27.09 18.4381 26.138Z" fill="black"/>
</g>
<defs>
<clipPath id="clip0_7_1304">
<rect width="60" height="60" fill="white" transform="translate(0.5)"/>
</clipPath>
</defs>
</svg>
