<svg width="61" height="60" viewBox="0 0 61 60" fill="none" xmlns="http://www.w3.org/2000/svg">
<g clip-path="url(#clip0_7_1482)">
<path d="M56.5 34C56.5 52 45.5 59 38.5 59C33.5 59 31.5 57 30.5 57C29.5 57 27.5 59 22.5 59C15.5 59 4.5 52 4.5 34C4.5 18 13.5 14 22.5 14H22.51C25.2311 13.9438 27.9393 14.3879 30.5 15.31H30.51C33.0707 14.3879 35.7789 13.9438 38.5 14C47.5 14 56.5 18 56.5 34Z" fill="#F44335"/>
<path d="M38.5 14C37.983 14 37.49 14.017 37.008 14.041C45.478 14.487 53.5 18.9 53.5 34C53.5 50.9 43.809 58.1 36.83 58.919C37.347 58.97 37.9 59 38.5 59C45.5 59 56.5 52 56.5 34C56.5 18 47.5 14 38.5 14Z" fill="#C81E1E"/>
<path d="M33.55 16.9199C32.6048 16.2635 31.5841 15.723 30.51 15.3099L33.55 16.9199Z" fill="#F44335"/>
<path d="M30.5 10.38V15.31C27.9393 14.3878 25.2311 13.9438 22.51 14H22.5C21.2758 13.5538 20.161 12.8515 19.23 11.94C15.49 8.11996 16.74 1.07996 16.74 1.07996C16.74 1.07996 24.06 0.239961 27.81 4.05996C29.3618 5.82325 30.305 8.03916 30.5 10.38Z" fill="#60A917"/>
<path d="M27.81 4.0599C24.468 0.659901 18.31 0.951901 17 1.0599C19.434 1.2349 22.691 1.9049 24.81 4.0599C26.3618 5.82319 27.305 8.0391 27.5 10.3799V14.4629C28.5221 14.6601 29.5257 14.9434 30.5 15.3099V10.3799C30.305 8.0391 29.3618 5.82319 27.81 4.0599Z" fill="#549414"/>
<path d="M8.733 31C8.69086 31.0003 8.64876 30.9977 8.607 30.992C8.34374 30.9591 8.10437 30.8228 7.94157 30.6133C7.77878 30.4038 7.7059 30.1382 7.739 29.875C8.827 21.211 13.655 17 22.5 17C23.0523 17 23.5 17.4477 23.5 18C23.5 18.5523 23.0523 19 22.5 19C14.736 19 10.676 22.535 9.724 30.125C9.66106 30.6246 9.23651 30.9994 8.733 31Z" fill="#F5F5F5"/>
<path d="M8.5 35C9.05228 35 9.5 34.5523 9.5 34C9.5 33.4477 9.05228 33 8.5 33C7.94772 33 7.5 33.4477 7.5 34C7.5 34.5523 7.94772 35 8.5 35Z" fill="#F5F5F5"/>
<path d="M3.5 34C3.5 52.941 15.154 60 22.5 60C24.9824 60.0403 27.4374 59.4771 29.654 58.359C29.9225 58.2213 30.1998 58.1013 30.484 58C30.7814 58.0938 31.0699 58.2139 31.346 58.359C33.5626 59.4771 36.0176 60.0403 38.5 60C45.846 60 57.5 52.941 57.5 34C57.5 16.643 47.167 13 38.5 13C36.1334 12.9773 33.7759 13.2955 31.5 13.945V8.99996C31.5 7.11896 31.5 3.61795 34.947 1.89995C35.2668 1.74026 35.477 1.4221 35.4986 1.06534C35.5202 0.708578 35.3498 0.367406 35.0516 0.170341C34.7534 -0.0267244 34.3728 -0.0497437 34.053 0.109954C31.9782 1.10908 30.4575 2.9821 29.906 5.21795C29.5245 4.54448 29.0598 3.9216 28.523 3.36395C24.478 -0.761046 16.944 0.048954 16.626 0.085954C16.1869 0.136647 15.8331 0.469666 15.756 0.904954C15.701 1.21295 14.462 8.50496 18.519 12.644C18.712 12.838 18.919 13.02 19.137 13.198C11.372 14.149 3.5 18.85 3.5 34ZM17.629 2.02095C19.518 1.93995 24.413 2.02695 27.095 4.75895C28.4945 6.34614 29.3387 8.34606 29.5 10.456V13.94C27.2951 13.3151 25.0137 13.0014 22.722 13.008C21.6847 12.615 20.7392 12.0133 19.944 11.24C17.3 8.53596 17.45 3.85495 17.629 2.02095ZM22.5 15C25.0894 14.9486 27.6667 15.3652 30.108 16.23H30.118L30.148 16.24C31.1468 16.6254 32.0959 17.129 32.975 17.74C33.267 17.9522 33.6508 17.9906 33.9791 17.8404C34.3074 17.6901 34.5292 17.3746 34.5595 17.0148C34.5897 16.655 34.4236 16.3069 34.125 16.104C33.844 15.904 33.551 15.717 33.249 15.537C34.9744 15.1664 36.7353 14.9863 38.5 15C49.78 15 55.5 21.393 55.5 34C55.5 51.484 45.073 58 38.5 58C36.313 58.0405 34.1496 57.5429 32.2 56.551C31.6798 56.2466 31.0998 56.0586 30.5 56C29.9002 56.0586 29.3202 56.2466 28.8 56.551C26.8504 57.5429 24.687 58.0405 22.5 58C15.927 58 5.5 51.484 5.5 34C5.5 21.393 11.22 15 22.5 15Z" fill="black"/>
</g>
<defs>
<clipPath id="clip0_7_1482">
<rect width="60" height="60" fill="white" transform="translate(0.5)"/>
</clipPath>
</defs>
</svg>
