<svg width="61" height="60" viewBox="0 0 61 60" fill="none" xmlns="http://www.w3.org/2000/svg">
<g clip-path="url(#clip0_7_1315)">
<mask id="mask0_7_1315" style="mask-type:luminance" maskUnits="userSpaceOnUse" x="0" y="0" width="61" height="60">
<path d="M0.5 3.8147e-06H60.5V60H0.5V3.8147e-06Z" fill="white"/>
</mask>
<g mask="url(#mask0_7_1315)">
<path d="M19.7107 4.33231C19.5731 4.23024 19.3864 4.23024 19.2489 4.33231C16.7087 6.2168 14.9742 9.99926 14.9742 14.3588C14.9742 18.7181 16.7087 22.5007 19.2489 24.3851C19.3864 24.487 19.5731 24.487 19.7107 24.3851C22.2509 22.5007 23.9854 18.7181 23.9854 14.3588C23.9854 9.99926 22.2509 6.2168 19.7107 4.33231Z" fill="#09A76D"/>
<path d="M19.7107 4.33231C19.5731 4.23024 19.3864 4.23024 19.2489 4.33231C16.7087 6.2168 14.9742 9.99926 14.9742 14.3588C14.9742 18.7181 16.7087 22.5007 19.2489 24.3851C19.3864 24.487 19.5731 24.487 19.7107 24.3851C22.2509 22.5007 23.9854 18.7181 23.9854 14.3588C23.9854 9.99926 22.2509 6.2168 19.7107 4.33231Z" stroke="black" stroke-width="1.81641" stroke-miterlimit="10" stroke-linecap="round" stroke-linejoin="round"/>
<path d="M6.18844 7.10567C6.0191 7.13074 5.88703 7.26293 5.86195 7.43227C5.39824 10.5608 6.84644 14.462 9.92906 17.5446C13.0117 20.6271 16.9127 22.0753 20.0414 21.6117C20.2107 21.5866 20.3428 21.4545 20.3679 21.2851C20.8316 18.1564 19.3834 14.2554 16.3008 11.1729C13.2182 8.09027 9.31711 6.64195 6.18844 7.10567Z" fill="#02905D"/>
<path d="M6.18844 7.10566C6.0191 7.13074 5.88703 7.26293 5.86195 7.43227C5.39824 10.5608 6.84644 14.462 9.92906 17.5446C13.0117 20.6271 16.9127 22.0753 20.0414 21.6117C20.2107 21.5866 20.3428 21.4545 20.3679 21.2851C20.8316 18.1564 19.3834 14.2554 16.3008 11.1729C13.2182 8.09027 9.31711 6.64195 6.18844 7.10566Z" stroke="black" stroke-width="1.81641" stroke-miterlimit="10" stroke-linecap="round" stroke-linejoin="round"/>
<path d="M33.0977 7.43223C33.0726 7.26289 32.9405 7.13082 32.7712 7.10563C29.6425 6.64203 25.7415 8.09024 22.6589 11.1729C19.5762 14.2554 18.128 18.1565 18.5917 21.2851C18.6168 21.4545 18.7489 21.5866 18.9182 21.6117C22.0469 22.0754 25.948 20.6272 29.0306 17.5446C32.1132 14.462 33.5614 10.5609 33.0977 7.43223Z" fill="#02905D"/>
<path d="M26.5273 8.33856C25.1766 9.02645 23.8559 9.97578 22.6589 11.1729C19.5764 14.2555 18.128 18.1565 18.5917 21.2852C18.6168 21.4545 18.749 21.5866 18.9182 21.6117C22.047 22.0754 25.9481 20.6272 29.0306 17.5446C32.1132 14.462 33.5614 10.5609 33.0977 7.43223C33.0727 7.26289 32.9406 7.13082 32.7712 7.10563C32.0296 6.99582 31.2444 6.99465 30.4371 7.0959" stroke="black" stroke-width="1.81641" stroke-miterlimit="10" stroke-linecap="round" stroke-linejoin="round"/>
<path d="M23.0797 17.7807C22.9395 17.6766 22.8867 17.4919 22.9506 17.3293C23.7869 15.2031 26.0698 13.2671 29.0864 12.4041C32.1029 11.541 35.0643 11.9766 36.8987 13.3385C37.0388 13.4427 37.0917 13.6274 37.0278 13.7899C36.1915 15.9162 33.9085 17.8521 30.8921 18.7152C27.8756 19.5783 24.9141 19.1428 23.0797 17.7807Z" fill="#09A76D"/>
<path d="M15.8799 17.7807C16.0201 17.6766 16.0729 17.4919 16.0091 17.3293C15.1727 15.2031 12.8898 13.2671 9.87326 12.4041C6.85674 11.541 3.89529 11.9766 2.06096 13.3385C1.9208 13.4427 1.86795 13.6274 1.93181 13.7899C2.76818 15.9162 5.05111 17.8521 8.06752 18.7152C11.084 19.5783 14.0455 19.1428 15.8799 17.7807Z" fill="#09A76D"/>
<path d="M23.0797 17.7807C22.9395 17.6766 22.8867 17.4919 22.9506 17.3293C23.7869 15.2031 26.0698 13.2671 29.0864 12.4041C32.1029 11.541 35.0643 11.9766 36.8987 13.3385C37.0388 13.4427 37.0917 13.6274 37.0278 13.7899C36.1915 15.9162 33.9085 17.8521 30.8921 18.7152C27.8756 19.5783 24.9141 19.1428 23.0797 17.7807Z" stroke="black" stroke-width="1.81641" stroke-miterlimit="10" stroke-linecap="round" stroke-linejoin="round"/>
<path d="M15.8799 17.7807C16.0201 17.6766 16.0729 17.4919 16.0091 17.3293C15.1727 15.2031 12.8898 13.2671 9.87326 12.4041C6.85674 11.541 3.89529 11.9766 2.06096 13.3385C1.9208 13.4427 1.86795 13.6274 1.93181 13.7899C2.76818 15.9162 5.05111 17.8521 8.06752 18.7152C11.084 19.5783 14.0455 19.1428 15.8799 17.7807Z" stroke="black" stroke-width="1.81641" stroke-miterlimit="10" stroke-linecap="round" stroke-linejoin="round"/>
<path d="M24.4314 51.4893L36.3629 30.0811C39.8988 23.7369 35.312 15.9295 28.0489 15.9295H10.9107C3.64764 15.9295 -0.939193 23.7369 2.5967 30.0811L14.5281 51.4893C16.6899 55.368 22.2697 55.368 24.4314 51.4893Z" fill="#FB2B3A"/>
<path d="M20.6805 51.4893L8.74906 30.0811C5.21316 23.7368 9.79988 15.9294 17.063 15.9294H10.9107C3.64754 15.9294 -0.939179 23.7368 2.59672 30.0811L14.5282 51.4893C16.2091 54.5051 19.9557 55.1748 22.556 53.5008C21.812 53.0219 21.1614 52.3521 20.6805 51.4893Z" fill="#E41F2D"/>
<path d="M24.4314 51.4893L36.3629 30.0811C39.8988 23.7369 35.3121 15.9295 28.0489 15.9295H10.9107C3.64764 15.9295 -0.939194 23.7369 2.5967 30.0811L14.5281 51.4893C16.6899 55.368 22.2697 55.368 24.4314 51.4893Z" stroke="black" stroke-width="1.81641" stroke-miterlimit="10" stroke-linecap="round" stroke-linejoin="round"/>
<path d="M8.3233 26.9812V28.5216" stroke="black" stroke-width="1.81641" stroke-miterlimit="10" stroke-linecap="round" stroke-linejoin="round"/>
<path d="M15.7609 26.9812V28.5216" stroke="black" stroke-width="1.81641" stroke-miterlimit="10" stroke-linecap="round" stroke-linejoin="round"/>
<path d="M23.1987 26.9812V28.5216" stroke="black" stroke-width="1.81641" stroke-miterlimit="10" stroke-linecap="round" stroke-linejoin="round"/>
<path d="M30.6363 26.9812V28.5216" stroke="black" stroke-width="1.81641" stroke-miterlimit="10" stroke-linecap="round" stroke-linejoin="round"/>
<path d="M12.0422 21.2599V22.8002" stroke="black" stroke-width="1.81641" stroke-miterlimit="10" stroke-linecap="round" stroke-linejoin="round"/>
<path d="M19.4798 21.2599V22.8002" stroke="black" stroke-width="1.81641" stroke-miterlimit="10" stroke-linecap="round" stroke-linejoin="round"/>
<path d="M26.9174 21.2599V22.8002" stroke="black" stroke-width="1.81641" stroke-miterlimit="10" stroke-linecap="round" stroke-linejoin="round"/>
<path d="M12.0422 33.4176V34.9579" stroke="black" stroke-width="1.81641" stroke-miterlimit="10" stroke-linecap="round" stroke-linejoin="round"/>
<path d="M19.4798 33.4176V34.9579" stroke="black" stroke-width="1.81641" stroke-miterlimit="10" stroke-linecap="round" stroke-linejoin="round"/>
<path d="M26.9174 33.4176V34.9579" stroke="black" stroke-width="1.81641" stroke-miterlimit="10" stroke-linecap="round" stroke-linejoin="round"/>
<path d="M15.6179 39.458V40.9983" stroke="black" stroke-width="1.81641" stroke-miterlimit="10" stroke-linecap="round" stroke-linejoin="round"/>
<path d="M23.0556 39.458V40.9983" stroke="black" stroke-width="1.81641" stroke-miterlimit="10" stroke-linecap="round" stroke-linejoin="round"/>
<path d="M19.3367 46.0044V47.5448" stroke="black" stroke-width="1.81641" stroke-miterlimit="10" stroke-linecap="round" stroke-linejoin="round"/>
<path d="M53.5269 25.1458C53.5061 25.0054 53.3966 24.8958 53.2561 24.875C50.6623 24.4906 47.4279 25.6913 44.8721 28.247C42.3165 30.8028 41.1158 34.0372 41.5002 36.631C41.5211 36.7715 41.6305 36.8809 41.771 36.9017C44.3647 37.2862 47.5992 36.0855 50.155 33.5297C52.7106 30.974 53.9113 27.7397 53.5269 25.1458Z" fill="#09A76D"/>
<path d="M53.5269 25.1458C53.5061 25.0054 53.3966 24.8958 53.2561 24.875C50.6623 24.4906 47.4279 25.6913 44.8721 28.247C42.3165 30.8028 41.1158 34.0372 41.5002 36.631C41.5211 36.7715 41.6305 36.8809 41.771 36.9017C44.3647 37.2862 47.5992 36.0855 50.155 33.5297C52.7106 30.974 53.9113 27.7397 53.5269 25.1458Z" stroke="black" stroke-width="1.81641" stroke-miterlimit="10" stroke-linecap="round" stroke-linejoin="round"/>
<path d="M43.9735 18.8442C43.8594 18.7596 43.7046 18.7596 43.5906 18.8442C41.4846 20.4065 40.0466 23.5426 40.0466 27.157C40.0466 30.7713 41.4846 33.9074 43.5906 35.4697C43.7046 35.5542 43.8594 35.5542 43.9735 35.4697C46.0796 33.9074 47.5175 30.7713 47.5175 27.157C47.5175 23.5426 46.0796 20.4065 43.9735 18.8442Z" fill="#02905D"/>
<path d="M45.8385 20.9084C45.3114 20.071 44.6803 19.3687 43.9735 18.8442C43.8594 18.7597 43.7046 18.7597 43.5906 18.8442C41.4846 20.4066 40.0466 23.5426 40.0466 27.1571C40.0466 30.7713 41.4846 33.9074 43.5906 35.4697C43.7046 35.5544 43.8594 35.5544 43.9735 35.4697C46.0796 33.9074 47.5175 30.7713 47.5175 27.1571C47.5175 26.333 47.442 25.5341 47.3015 24.7728" stroke="black" stroke-width="1.81641" stroke-miterlimit="10" stroke-linecap="round" stroke-linejoin="round"/>
<path d="M59.5577 34.8112C59.6423 34.6972 59.6423 34.5424 59.5577 34.4283C57.9954 32.3224 54.8593 30.8843 51.2449 30.8843C47.6307 30.8843 44.4946 32.3224 42.9322 34.4283C42.8476 34.5424 42.8476 34.6972 42.9322 34.8112C44.4946 36.9172 47.6307 38.3552 51.2449 38.3552C54.8593 38.3552 57.9954 36.9172 59.5577 34.8112Z" fill="#09A76D"/>
<path d="M59.5577 34.8112C59.6423 34.6972 59.6423 34.5424 59.5577 34.4283C57.9954 32.3224 54.8593 30.8843 51.2449 30.8843C47.6307 30.8843 44.4946 32.3224 42.9322 34.4283C42.8476 34.5424 42.8476 34.6972 42.9322 34.8112C44.4946 36.9172 47.6307 38.3552 51.2449 38.3552C54.8593 38.3552 57.9954 36.9172 59.5577 34.8112Z" stroke="black" stroke-width="1.81641" stroke-miterlimit="10" stroke-linecap="round" stroke-linejoin="round"/>
<path d="M47.6177 35.0051C47.5965 34.8619 47.6739 34.7225 47.8066 34.6648C49.5436 33.9086 52.0168 34.1119 54.2912 35.3743C56.5656 36.6368 58.0464 38.6283 58.3233 40.5022C58.3445 40.6454 58.2671 40.7848 58.1344 40.8425C56.3977 41.5988 53.9243 41.3953 51.6499 40.1329C49.3755 38.8704 47.8947 36.879 47.6177 35.0051Z" fill="#02905D"/>
<path d="M47.6177 35.0051C47.5965 34.8619 47.6739 34.7225 47.8066 34.6648C49.5436 33.9086 52.0168 34.1119 54.2912 35.3743C56.5656 36.6368 58.0464 38.6283 58.3233 40.5022C58.3445 40.6454 58.2671 40.7848 58.1344 40.8425C56.3977 41.5988 53.9243 41.3953 51.6499 40.1329C49.3755 38.8704 47.8947 36.879 47.6177 35.0051Z" stroke="black" stroke-width="1.81641" stroke-miterlimit="10" stroke-linecap="round" stroke-linejoin="round"/>
<path d="M43.397 30.7841C43.5402 30.8053 43.6794 30.728 43.7371 30.5952C44.4934 28.8584 44.29 26.3851 43.0276 24.1108C41.7651 21.8364 39.7737 20.3555 37.8998 20.0786C37.7565 20.0574 37.6173 20.1347 37.5595 20.2675C36.8032 22.0043 37.0067 24.4776 38.2691 26.7519C39.5315 29.0263 41.523 30.5072 43.397 30.7841Z" fill="#09A76D"/>
<path d="M43.397 30.7841C43.5402 30.8053 43.6794 30.728 43.7371 30.5952C44.4934 28.8584 44.29 26.3851 43.0276 24.1108C41.7651 21.8364 39.7737 20.3555 37.8998 20.0786C37.7565 20.0574 37.6173 20.1347 37.5595 20.2675C36.8032 22.0043 37.0067 24.4776 38.2691 26.7519C39.5315 29.0263 41.523 30.5072 43.397 30.7841Z" stroke="black" stroke-width="1.81641" stroke-miterlimit="10" stroke-linecap="round" stroke-linejoin="round"/>
<path d="M28.6486 55.5591L48.1939 50.0034C53.9862 48.357 55.8743 41.0908 51.6163 36.8328L41.5691 26.7856C37.3111 22.5276 30.0449 24.4157 28.3984 30.208L22.8428 49.7533C21.8361 53.2945 25.1073 56.5657 28.6486 55.5591Z" fill="#FB2B3A"/>
<path d="M27.7551 54.0093L33.3108 34.4639C34.6944 29.5962 40.0468 27.4864 44.2474 29.464L41.5691 26.7855C37.3111 22.5275 30.0449 24.4157 28.3984 30.208L22.8428 49.7534C21.9375 52.938 24.4924 55.9024 27.5917 55.7352C27.541 55.1795 27.5876 54.5984 27.7551 54.0093Z" fill="#E41F2D"/>
<path d="M42.8709 51.5165L48.194 50.0034C53.9863 48.357 55.8743 41.0908 51.6163 36.8328L41.5691 26.7856C37.3111 22.5276 30.0449 24.4157 28.3984 30.208L22.8428 49.7533C21.8362 53.2945 25.1073 56.5657 28.6486 55.5591L38.9229 52.6387" stroke="black" stroke-width="1.81641" stroke-miterlimit="10" stroke-linecap="round" stroke-linejoin="round"/>
<path d="M33.5731 31.7478L32.67 32.6509" stroke="black" stroke-width="1.81641" stroke-miterlimit="10" stroke-linecap="round" stroke-linejoin="round"/>
<path d="M37.9334 36.1082L37.0303 37.0112" stroke="black" stroke-width="1.81641" stroke-miterlimit="10" stroke-linecap="round" stroke-linejoin="round"/>
<path d="M42.2937 40.4685L41.3908 41.3716" stroke="black" stroke-width="1.81641" stroke-miterlimit="10" stroke-linecap="round" stroke-linejoin="round"/>
<path d="M46.6541 44.8288L45.7511 45.7318" stroke="black" stroke-width="1.81641" stroke-miterlimit="10" stroke-linecap="round" stroke-linejoin="round"/>
<path d="M39.1073 30.5739L38.2043 31.4769" stroke="black" stroke-width="1.81641" stroke-miterlimit="10" stroke-linecap="round" stroke-linejoin="round"/>
<path d="M43.4676 34.9342L42.5646 35.8373" stroke="black" stroke-width="1.81641" stroke-miterlimit="10" stroke-linecap="round" stroke-linejoin="round"/>
<path d="M47.828 39.2946L46.925 40.1976" stroke="black" stroke-width="1.81641" stroke-miterlimit="10" stroke-linecap="round" stroke-linejoin="round"/>
<path d="M31.9798 37.7013L31.0769 38.6044" stroke="black" stroke-width="1.81641" stroke-miterlimit="10" stroke-linecap="round" stroke-linejoin="round"/>
<path d="M36.3403 42.0617L35.4373 42.9647" stroke="black" stroke-width="1.81641" stroke-miterlimit="10" stroke-linecap="round" stroke-linejoin="round"/>
<path d="M40.7006 46.422L39.7975 47.3251" stroke="black" stroke-width="1.81641" stroke-miterlimit="10" stroke-linecap="round" stroke-linejoin="round"/>
<path d="M30.535 43.3388L29.632 44.2418" stroke="black" stroke-width="1.81641" stroke-miterlimit="10" stroke-linecap="round" stroke-linejoin="round"/>
<path d="M34.8954 47.6991L33.9923 48.6022" stroke="black" stroke-width="1.81641" stroke-miterlimit="10" stroke-linecap="round" stroke-linejoin="round"/>
<path d="M28.8774 49.3568L27.9743 50.2599" stroke="black" stroke-width="1.81641" stroke-miterlimit="10" stroke-linecap="round" stroke-linejoin="round"/>
</g>
</g>
<defs>
<clipPath id="clip0_7_1315">
<rect width="60" height="60" fill="white" transform="translate(0.5)"/>
</clipPath>
</defs>
</svg>
