<svg width="76" height="70" viewBox="0 0 76 70" fill="none" xmlns="http://www.w3.org/2000/svg">
<g clip-path="url(#clip0_3_399)">
<path d="M24.6859 18.6306C24.7649 17.8229 25.2457 17.1275 25.9709 16.7707C37.1603 11.2739 43.979 21.3484 44.7868 22.6298L45.8263 23.6567V19.4115C43.5053 19.37 40.7359 17.3066 37.9018 13.4132C35.1121 9.58099 36.2696 3.65099 37.672 1.54662C38.3309 0.558707 39.289 0.0237577 40.4429 -2.91215e-05C42.939 -0.0263464 45.8668 2.36752 47.629 4.7882C48.9186 6.56006 49.863 9.34869 50.0937 12.0659C50.1727 12.9957 50.196 14.306 49.9242 15.5682C50.2344 14.7275 50.6621 13.7978 51.2117 12.777C54.719 6.26399 58.4292 4.82363 60.3286 4.54477C61.7376 4.33625 63.0125 4.64801 63.7388 5.37376C65.4742 7.10868 63.4806 10.5932 63.222 11.0259C63.0565 11.3149 60.439 15.8126 56.4823 19.1099C55.1219 20.244 53.3723 21.0786 51.9208 21.0786C51.5706 21.0786 51.2385 21.028 50.9329 20.9232L47.5956 26.1847V31.0255L49.4576 27.3011C49.5097 27.1974 49.5801 27.1093 49.6615 27.0364C52.107 23.0418 56.0668 20.1747 57.4788 19.2339C59.1859 18.0961 61.1926 17.4266 63.2807 17.298C66.0511 17.1239 68.7259 18.1872 70.6283 20.2041C71.0079 20.6064 71.2022 21.1333 71.1744 21.6874C71.1466 22.2361 70.8935 22.7568 70.479 23.1162C65.5142 27.4201 61.6668 28.3103 57.9459 29.1717C56.7581 29.447 55.6366 29.7066 54.4715 30.0751C50.1727 31.435 49.3913 31.7477 49.2774 31.7973C49.2405 31.8166 49.202 31.8328 49.163 31.8464L47.6999 34.7727H57.3244C57.5835 34.7727 57.83 34.8866 57.998 35.0835C58.1661 35.2808 58.2395 35.542 58.198 35.7981L55.6265 51.719L55.0551 55.2567C54.9862 55.6853 54.6158 56.0001 54.182 56.0001H39.0142C38.5799 56.0001 38.21 55.6853 38.1406 55.2567L37.5692 51.719L34.9977 35.7981C34.9562 35.542 35.0301 35.2808 35.1977 35.0835C35.3657 34.8866 35.6121 34.7727 35.8713 34.7727H45.8263V26.1427L43.9041 24.2443C41.8969 25.0378 39.9388 25.3602 38.085 25.3602C32.4186 25.3602 27.7291 22.3666 25.605 20.7441C24.9491 20.2425 24.6054 19.4525 24.6859 18.6306ZM48.3315 12.2152C48.1296 9.83859 47.2925 7.33187 46.1988 5.82925C44.4785 3.46576 42.1019 1.76829 40.5239 1.76829C40.5092 1.76829 40.494 1.76829 40.4793 1.7688C39.9059 1.78094 39.4813 2.02185 39.1442 2.52846C37.9681 4.29273 37.1461 9.36994 39.3325 12.3726C40.5062 13.9851 44.5332 19.1033 47.0754 17.253C48.0678 16.5298 48.538 14.6471 48.3315 12.2152ZM51.3347 19.16C51.8889 19.6124 53.7245 19.1068 55.3501 17.7515C59.1013 14.6258 61.6658 10.1848 61.6916 10.1402C61.6941 10.1357 61.6976 10.1301 61.7007 10.125C62.3728 8.99998 63.0206 7.15676 62.4882 6.62484C62.3308 6.46745 61.9011 6.24982 61.1829 6.24982C61.0023 6.24982 60.8029 6.26349 60.5857 6.29537C59.321 6.48111 56.0273 7.56619 52.7695 13.6161C50.7866 17.298 50.9349 18.8335 51.3347 19.16ZM49.4753 19.9201C49.5138 19.8594 49.5598 19.8068 49.6094 19.7592C49.2561 19.0355 49.2329 18.0546 49.535 16.8258C49.2253 17.5531 48.7718 18.206 48.1159 18.6832C47.9469 18.8067 47.7733 18.914 47.5956 19.0056V22.8834L49.4753 19.9201ZM50.3215 29.5558C51.1333 29.285 52.2877 28.9115 53.9381 28.3887C55.1689 27.999 56.3785 27.7197 57.5476 27.4489C61.2194 26.5987 64.6877 25.796 69.3201 21.7801C69.3914 21.7183 69.4056 21.6404 69.4076 21.5999C69.4101 21.5513 69.4005 21.4805 69.3418 21.4187C69.3413 21.4187 69.3413 21.4182 69.3413 21.4182C67.908 19.8984 65.9302 19.0502 63.8567 19.0502C63.7013 19.0502 63.5454 19.0547 63.3895 19.0643C61.6121 19.1736 59.9076 19.7415 58.4596 20.7061C57.0172 21.6672 52.7128 24.7848 50.5978 28.9773L50.4956 29.1813C50.4359 29.3053 50.3772 29.4298 50.3215 29.5558ZM39.7672 54.2313H53.429L53.7144 52.4625H39.4813L39.7672 54.2313ZM39.1959 50.6937H54.0003L56.2859 36.542H36.9098L39.1959 50.6937ZM26.6789 19.3381V19.3386C29.7783 21.7062 35.8384 25.1674 42.6146 22.8348C42.5817 22.7376 42.5645 22.6364 42.566 22.5347C41.8342 21.5746 40.5957 20.1651 38.9059 19.0016C35.1845 16.4402 31.0957 16.2241 26.7513 18.3583C26.5124 18.4757 26.4578 18.6873 26.4461 18.8037C26.4365 18.9034 26.4396 19.1554 26.6789 19.3381Z" fill="#F7C35F"/>
</g>
<path d="M41.6648 59.6169H31.7948H30.561C30.4711 59.6169 30.3985 59.5443 30.3985 59.4544V57.5569C30.3985 57.467 30.4711 57.3944 30.561 57.3944H39.9472C40.0372 57.3944 40.1097 57.467 40.1097 57.5569V58.3794C40.1097 58.5566 40.2538 58.7007 40.431 58.7007C40.6082 58.7007 40.7523 58.5566 40.7523 58.3794V57.5569C40.7523 57.1126 40.3915 56.7519 39.9472 56.7519H35.4345C34.556 49.4779 31.5864 42.7198 26.8267 37.156C26.991 37.0229 27.0847 36.8274 27.0847 36.6153V35.5817C27.0847 35.3072 26.924 35.063 26.6817 34.951L29.9405 31.3994C30.4784 30.8128 30.6436 30.0133 30.382 29.2615C30.1195 28.5096 29.4934 27.9855 28.7076 27.8606L27.271 27.6321L27.5033 27.1253C27.6914 26.7141 27.6869 26.2459 27.4904 25.8383C27.294 25.4308 26.9304 25.1361 26.4917 25.0269L25.6857 24.8277C22.0257 23.9225 18.1583 23.9253 14.5002 24.8368L13.7429 25.0259C13.305 25.1352 12.9415 25.4308 12.746 25.8374C12.5505 26.2441 12.5459 26.7132 12.7341 27.1235L12.9672 27.633L11.5297 27.8616C10.743 27.9864 10.1169 28.5106 9.85531 29.2624C9.59277 30.0142 9.758 30.8137 10.2969 31.4003L13.5556 34.9519C13.3133 35.0649 13.1527 35.3081 13.1527 35.5826V36.6162C13.1527 36.8283 13.2472 37.0247 13.4115 37.1578C7.68431 43.8553 4.53384 52.3686 4.53384 61.1939V64.4059C4.53384 66.8578 6.52859 68.8535 8.9814 68.8535H28.435C28.6122 68.8535 28.7563 68.7093 28.7563 68.5322C28.7563 68.355 28.6122 68.2109 28.435 68.2109H8.97773C6.88017 68.2109 5.17275 66.5044 5.17275 64.4059V61.1939C5.17275 52.3823 8.36728 43.8865 14.1734 37.2524C18.0656 36.283 22.168 36.283 26.0602 37.2524C30.8832 42.7602 33.8951 49.4935 34.7873 56.7528H30.5619C30.1176 56.7528 29.7569 57.1135 29.7569 57.5578V59.4553C29.7569 59.8996 30.1176 60.2603 30.5619 60.2603H31.4744V62.4827H30.5619C30.1176 62.4827 29.7569 62.8435 29.7569 63.2878V65.6681V68.0484C29.7569 68.4927 30.1176 68.8535 30.5619 68.8535H39.9482C40.3925 68.8535 40.7532 68.4927 40.7532 68.0484V65.6672V63.1244H41.6657C42.11 63.1244 42.4707 62.7636 42.4707 62.3193V60.4228C42.4698 59.9776 42.1081 59.6169 41.6648 59.6169ZM24.2876 35.085C24.9981 35.2035 25.704 35.3513 26.4026 35.5303C26.4265 35.5367 26.443 35.5578 26.443 35.5826V36.6162C26.443 36.6383 26.432 36.6511 26.4219 36.6584C26.4127 36.6658 26.3962 36.6731 26.376 36.6676C25.9216 36.551 25.4644 36.4482 25.0055 36.3583C24.9247 35.8525 24.664 35.4045 24.2876 35.085ZM10.4593 29.4726C10.642 28.9475 11.079 28.5822 11.6279 28.495L13.2426 28.2379L15.0877 32.266C15.1612 32.4275 15.3521 32.4982 15.5137 32.4248C15.6752 32.3504 15.7459 32.1604 15.6716 31.9988L13.3161 26.8545C13.2077 26.6186 13.2105 26.3487 13.3234 26.1147C13.4363 25.8806 13.6447 25.7108 13.8971 25.6474L14.6544 25.4583C18.2107 24.5725 21.9716 24.5688 25.5296 25.4491L26.3356 25.6483C26.588 25.7108 26.7973 25.8806 26.9102 26.1147C27.0232 26.3487 27.0259 26.6186 26.9176 26.8545L23.936 33.3648C23.8626 33.5263 23.9333 33.7164 24.0939 33.7907C24.1371 33.8109 24.183 33.8201 24.2279 33.8201C24.35 33.8201 24.4666 33.7503 24.5199 33.6328L26.991 28.2361L28.6048 28.4931C29.1538 28.5803 29.5907 28.9457 29.7734 29.4708C29.9561 29.9958 29.8413 30.553 29.4659 30.9634L25.9785 34.7647C22.1295 33.8742 18.1014 33.8742 14.2524 34.7647L10.765 30.9634C10.3914 30.5549 10.2757 29.9967 10.4593 29.4726ZM40.1097 68.0475C40.1097 68.1374 40.0372 68.21 39.9472 68.21H30.5619C30.472 68.21 30.3995 68.1374 30.3995 68.0475V65.9885H40.1097V68.0475ZM40.1097 65.3459H30.3995V63.2869C30.3995 63.1969 30.472 63.1244 30.5619 63.1244H31.7957H40.1106V65.3459H40.1097ZM41.8272 62.3184C41.8272 62.4084 41.7547 62.4809 41.6648 62.4809H40.431H32.116V60.2585H41.6638C41.7538 60.2585 41.8263 60.331 41.8263 60.421V62.3184H41.8272Z" fill="#F7C35F" stroke="#F7C35F"/>
<path d="M20.1173 42.7694C14.7894 42.7694 10.4704 47.0885 10.4704 52.4163C10.4704 57.7442 14.7894 62.0633 20.1173 62.0633C25.4452 62.0633 29.7642 57.7442 29.7642 52.4163C29.7642 47.0885 25.4452 42.7694 20.1173 42.7694ZM20.9012 57.7057V59.0377C20.9012 59.1019 20.8489 59.1542 20.7846 59.1542H19.449C19.3847 59.1542 19.3324 59.1019 19.3324 59.0377V57.7149C17.8233 57.6625 16.6042 56.4508 16.5427 54.9444C16.54 54.8793 16.5941 54.8251 16.6593 54.8251H17.9968C18.0564 54.8251 18.1079 54.8701 18.1124 54.9297C18.1657 55.6109 18.7376 56.1497 19.4325 56.1497H20.6497C21.4869 56.1497 22.1634 55.4475 22.1221 54.6011C22.0827 53.8098 21.3997 53.2012 20.6075 53.2012H19.6464C17.972 53.2012 16.5629 51.8757 16.54 50.2013C16.5179 48.5884 17.7572 47.2564 19.3315 47.127V45.795C19.3315 45.7308 19.3838 45.6785 19.4481 45.6785H20.7837C20.848 45.6785 20.9003 45.7308 20.9003 45.795V47.1187C22.4095 47.1711 23.6285 48.3828 23.69 49.8892C23.6928 49.9544 23.6386 50.0085 23.5734 50.0085H22.236C22.1763 50.0085 22.1249 49.9635 22.1203 49.9039C22.0671 49.2227 21.4952 48.6848 20.8003 48.6848H19.583C18.7458 48.6848 18.0693 49.387 18.1106 50.2334C18.1501 51.0247 18.833 51.6333 19.6253 51.6333H20.5855C22.2598 51.6333 23.6689 52.9589 23.6919 54.6332C23.7148 56.2443 22.4755 57.5772 20.9012 57.7057Z" fill="#F7C35F"/>
<path d="M6.89119 60.5119V63.2906C6.89119 65.1338 8.38564 66.6283 10.2289 66.6283H16.5602C18.1363 66.6283 18.6853 64.5344 17.312 63.7606L9.17601 59.1771C8.15431 58.6007 6.89119 59.3396 6.89119 60.5119Z" fill="#F7C35F"/>
<defs>
<clipPath id="clip0_3_399">
<rect width="56" height="56" fill="white" transform="matrix(-1 0 0 1 76 0)"/>
</clipPath>
</defs>
</svg>
